<?xml version="1.0" standalone="no"?><!DOCTYPE svg PUBLIC "-//W3C//DTD SVG 1.1//EN" "http://www.w3.org/Graphics/SVG/1.1/DTD/svg11.dtd"><svg class="icon" width="200px" height="200.00px" viewBox="0 0 1024 1024" version="1.1" xmlns="http://www.w3.org/2000/svg"><path fill="#000000" d="M601.6 174.08a263.68 263.68 0 1 0 263.68 263.68A263.97952 263.97952 0 0 0 601.6 174.08m0-46.08a309.76 309.76 0 1 1-309.76 309.76A309.76 309.76 0 0 1 601.6 128z"  /><path fill="#000000" d="M138.24 921.6a23.04 23.04 0 0 1-16.29184-39.33184l261.12-261.12a23.04 23.04 0 0 1 32.58624 32.58368l-261.12 261.12A22.97088 22.97088 0 0 1 138.24 921.6z"  /><path fill="#000000" d="M605.44 609.28a23.04 23.04 0 0 1-23.04-23.04V291.84a23.04 23.04 0 1 1 46.08 0v294.4a23.04 23.04 0 0 1-23.04 23.04z"  /><path fill="#000000" d="M752.64 462.08H458.24a23.04 23.04 0 0 1 0-46.08h294.4a23.04 23.04 0 0 1 0 46.08z"  /></svg>