<?xml version="1.0" standalone="no"?><!DOCTYPE svg PUBLIC "-//W3C//DTD SVG 1.1//EN" "http://www.w3.org/Graphics/SVG/1.1/DTD/svg11.dtd"><svg class="icon" width="200px" height="200.00px" viewBox="0 0 1024 1024" version="1.1" xmlns="http://www.w3.org/2000/svg"><path fill="#000000" d="M180.48 157.44h665.6a89.7024 89.7024 0 0 1 89.6 89.6v531.99104a89.7024 89.7024 0 0 1-89.6 89.6h-665.6a89.7024 89.7024 0 0 1-89.6-89.6V247.04a89.7024 89.7024 0 0 1 89.6-89.6z m665.6 665.11104a43.56864 43.56864 0 0 0 43.52-43.52V247.04a43.56864 43.56864 0 0 0-43.52-43.52h-665.6a43.56864 43.56864 0 0 0-43.52 43.52v531.99104a43.56864 43.56864 0 0 0 43.52 43.52z"  /><path fill="#000000" d="M358.4 435.2a76.8 76.8 0 1 0 76.8 76.8 76.88704 76.88704 0 0 0-76.8-76.8m0-46.08a122.88 122.88 0 1 1-122.88 122.88 122.88 122.88 0 0 1 122.88-122.88z"  /><path fill="#000000" d="M665.6 435.2a76.8 76.8 0 1 0 76.8 76.8 76.88704 76.88704 0 0 0-76.8-76.8m0-46.08a122.88 122.88 0 1 1-122.88 122.88 122.88 122.88 0 0 1 122.88-122.88z"  /><path fill="#000000" d="M665.6 435.2H358.4v-46.08h307.2z"  /></svg>