<?xml version="1.0" standalone="no"?><!DOCTYPE svg PUBLIC "-//W3C//DTD SVG 1.1//EN" "http://www.w3.org/Graphics/SVG/1.1/DTD/svg11.dtd"><svg class="icon" width="200px" height="200.00px" viewBox="0 0 1024 1024" version="1.1" xmlns="http://www.w3.org/2000/svg"><path fill="#000000" d="M240.64 176.64h440.32a23.04 23.04 0 0 1 17.71008 8.30208l163.84 196.89216a23.04 23.04 0 0 1 5.32992 14.73792V865.28a79.4496 79.4496 0 0 1-79.36 79.36H240.64a79.4496 79.4496 0 0 1-79.36-79.36V256a79.4496 79.4496 0 0 1 79.36-79.36z m429.51936 46.08H240.64a33.3184 33.3184 0 0 0-33.28 33.28v609.28a33.3184 33.3184 0 0 0 33.28 33.28h547.84a33.3184 33.3184 0 0 0 33.28-33.28V404.90496z"  /><path fill="#000000" d="M345.6 176.64h332.8a23.04 23.04 0 0 1 23.04 23.04v97.28a79.4496 79.4496 0 0 1-79.36 79.36h-220.16a79.4496 79.4496 0 0 1-79.36-79.36V199.68a23.04 23.04 0 0 1 23.04-23.04z m309.76 46.08H368.64v74.24a33.3184 33.3184 0 0 0 33.28 33.28h220.16a33.3184 33.3184 0 0 0 33.28-33.28z"  /><path fill="#000000" d="M353.28 529.92h317.44a79.4496 79.4496 0 0 1 79.36 79.36v312.32a23.04 23.04 0 0 1-23.04 23.04H296.96a23.04 23.04 0 0 1-23.04-23.04V609.28a79.4496 79.4496 0 0 1 79.36-79.36z m350.72 368.64V609.28a33.3184 33.3184 0 0 0-33.28-33.28H353.28a33.3184 33.3184 0 0 0-33.28 33.28v289.28z"  /></svg>