<?xml version="1.0" standalone="no"?><!DOCTYPE svg PUBLIC "-//W3C//DTD SVG 1.1//EN" "http://www.w3.org/Graphics/SVG/1.1/DTD/svg11.dtd"><svg class="icon" width="200px" height="200.00px" viewBox="0 0 1024 1024" version="1.1" xmlns="http://www.w3.org/2000/svg"><path fill="#000000" d="M348.98432 549.12a9.792 9.792 0 0 0-9.78176 9.78176A156.79488 156.79488 0 0 0 495.8208 715.52h29.80352a156.79488 156.79488 0 0 0 156.61824-156.61824 9.792 9.792 0 0 0-9.78176-9.78176H348.98432m0-46.08H672.4608a55.86176 55.86176 0 0 1 55.86176 55.86176 202.69824 202.69824 0 0 1-202.69824 202.69824H495.8208a202.69824 202.69824 0 0 1-202.69824-202.69824 55.86176 55.86176 0 0 1 55.86176-55.86176z"  /><path fill="#000000" d="M511.03232 122.88c214.016 0 388.15232 174.12352 388.15232 388.15232s-174.12608 388.15232-388.15232 388.15232S122.88 725.06112 122.88 511.03232 297.00608 122.88 511.03232 122.88z m0 730.22464c188.6208 0 342.07232-153.45408 342.07232-342.07232S699.648 168.96 511.03232 168.96 168.96 322.41408 168.96 511.03232s153.45152 342.07232 342.07232 342.07232z"  /><path fill="#000000" d="M418.87232 452.15232a23.04 23.04 0 0 1-23.04-23.04v-107.52a23.04 23.04 0 0 1 46.08 0v107.52a23.04 23.04 0 0 1-23.04 23.04z"  /><path fill="#000000" d="M605.75232 452.15232a23.04 23.04 0 0 1-23.04-23.04v-107.52a23.04 23.04 0 0 1 46.08 0v107.52a23.04 23.04 0 0 1-23.04 23.04z"  /></svg>