<?xml version="1.0" standalone="no"?><!DOCTYPE svg PUBLIC "-//W3C//DTD SVG 1.1//EN" "http://www.w3.org/Graphics/SVG/1.1/DTD/svg11.dtd"><svg class="icon" width="200px" height="200.00px" viewBox="0 0 1024 1024" version="1.1" xmlns="http://www.w3.org/2000/svg"><path fill="#000000" d="M906.24 513.28a78.5536 78.5536 0 0 1-39.68 68.72576l-624.64 360.68608A79.36 79.36 0 0 1 122.88 873.96608V152.59392a79.36 79.36 0 0 1 119.04-68.72576l624.64 360.68608A78.5536 78.5536 0 0 1 906.24 513.28zM168.96 873.96608a33.28 33.28 0 0 0 49.92 28.82048l624.64-360.68608a33.28 33.28 0 0 0 0-57.64096L218.88 123.77344A33.28 33.28 0 0 0 168.96 152.59392z" /></svg>