<?xml version="1.0" standalone="no"?><!DOCTYPE svg PUBLIC "-//W3C//DTD SVG 1.1//EN" "http://www.w3.org/Graphics/SVG/1.1/DTD/svg11.dtd"><svg class="icon" width="200px" height="200.00px" viewBox="0 0 1024 1024" version="1.1" xmlns="http://www.w3.org/2000/svg"><path fill="#000000" d="M350.05952 168.02816a23.04 23.04 0 0 1 32.54272-0.0384 23.04 23.04 0 0 1 0.08192 32.58112L168.78592 415.5136l213.85728 213.85728a23.04 23.04 0 0 1 0 32.58368 23.04 23.04 0 0 1-32.58368 0l-230.11072-230.11072a23.04 23.04 0 0 1-0.0384-32.54272l230.11072-231.232z"  /><path fill="#000000" d="M651.06688 862.64576c-2.96192 0-4.80768-0.06144-5.34528-0.08192a23.04 23.04 0 0 1 1.73056-46.04672c1.03936 0.03584 104.76032 2.9312 168.0512-58.18368 33.024-31.89504 49.7792-76.51328 49.7792-132.608s-16.74752-100.7232-49.77664-132.608c-63.29088-61.11488-167.01184-58.21952-168.0512-58.18368l-502.86592 0.06912a23.04 23.04 0 1 1 0-46.08l502.016-0.05376c4.13952-0.17664 123.01568-3.85536 200.6528 70.85312 42.53696 40.93184 64.10496 96.78592 64.10496 166.01088s-21.568 125.07904-64.10496 166.01088c-69.31712 66.68544-171.5072 70.90176-196.19072 70.90176z"  /></svg>