<?xml version="1.0" standalone="no"?><!DOCTYPE svg PUBLIC "-//W3C//DTD SVG 1.1//EN" "http://www.w3.org/Graphics/SVG/1.1/DTD/svg11.dtd"><svg class="icon" width="200px" height="200.00px" viewBox="0 0 1024 1024" version="1.1" xmlns="http://www.w3.org/2000/svg"><path fill="#000000" d="M385.2288 143.97184h0.27392l422.43072 1.40288a79.20128 79.20128 0 0 1 60.53888 28.35456 79.17824 79.17824 0 0 1 17.3952 64.53504l-71.97952 416.23808a79.41632 79.41632 0 0 1-78.53056 65.88416 77.824 77.824 0 0 1-60.4544-28.38784l-97.52064-116.224-117.07904 58.53696c-137.85088 67.5456-250.71872 233.856-251.84512 235.52a23.04 23.04 0 0 1-21.17888 10.09408 23.04 23.04 0 0 1-19.04384-13.70112c-1.21088-2.76736-118.56384-278.25408 113.92-411.53792l127.68512-78.592-85.38624-101.75744a78.6304 78.6304 0 0 1-11.12064-84.56192 78.6048 78.6048 0 0 1 71.89504-45.80352z m350.1312 530.33728a33.09056 33.09056 0 0 0 33.12128-27.648l71.98464-416.256a33.18784 33.18784 0 0 0-7.29088-27.0592 33.22112 33.22112 0 0 0-25.39008-11.8912l-422.43072-1.40288-0.12544-23.04v23.04a32.54784 32.54784 0 0 0-30.13888 19.21536 32.5632 32.5632 0 0 0 4.66432 35.46624l102.53568 122.19648a23.04 23.04 0 0 1 5.0944 18.49088 23.04 23.04 0 0 1-10.67008 15.94112l-151.04 92.94592c-150.63552 86.36928-129.45408 240.7424-108.96896 313.6 43.12576-55.8336 134.44096-161.61792 243.14624-214.88384l133.17888-66.5856a23.04 23.04 0 0 1 27.9552 5.7984l109.20448 130.1504a32.45056 32.45056 0 0 0 25.16992 11.92192z" /></svg>