<?xml version="1.0" standalone="no"?><!DOCTYPE svg PUBLIC "-//W3C//DTD SVG 1.1//EN" "http://www.w3.org/Graphics/SVG/1.1/DTD/svg11.dtd"><svg class="icon" width="200px" height="200.00px" viewBox="0 0 1024 1024" version="1.1" xmlns="http://www.w3.org/2000/svg"><path fill="#000000" d="M133.12 122.88a10.24 10.24 0 0 0-10.24 10.24v757.76a10.24 10.24 0 0 0 10.24 10.24h757.76a10.24 10.24 0 0 0 10.24-10.24V133.12a10.24 10.24 0 0 0-10.24-10.24H133.12m0-46.08h757.76a56.32 56.32 0 0 1 56.32 56.32v757.76a56.32 56.32 0 0 1-56.32 56.32H133.12a56.32 56.32 0 0 1-56.32-56.32V133.12a56.32 56.32 0 0 1 56.32-56.32z"  /><path fill="#000000" d="M235.52 821.76a23.04 23.04 0 0 1-17.3312-38.21312l215.04-245.76a23.04 23.04 0 0 1 34.67776 30.34368l-215.04 245.76A22.98624 22.98624 0 0 1 235.52 821.76z"  /><path fill="#000000" d="M788.48 821.76H450.56a23.04 23.04 0 0 1 0-46.08h337.92a23.04 23.04 0 0 1 0 46.08z"  /></svg>