<?xml version="1.0" standalone="no"?><!DOCTYPE svg PUBLIC "-//W3C//DTD SVG 1.1//EN" "http://www.w3.org/Graphics/SVG/1.1/DTD/svg11.dtd"><svg class="icon" width="200px" height="200.00px" viewBox="0 0 1024 1024" version="1.1" xmlns="http://www.w3.org/2000/svg"><path fill="#000000" d="M557.7984 833.65632a78.16448 78.16448 0 0 1-50.03008-18.09408l-135.81824-111.33696H194.56a79.4496 79.4496 0 0 1-79.36-79.36v-225.28a79.4496 79.4496 0 0 1 79.36-79.36h177.38752l135.8208-111.33952a78.15936 78.15936 0 0 1 50.02752-18.09408A79.64672 79.64672 0 0 1 637.44 270.26176v483.92704a79.64672 79.64672 0 0 1-79.63904 79.46752zM194.56 366.30528a33.31584 33.31584 0 0 0-33.28 33.28v225.28a33.3184 33.3184 0 0 0 33.28 33.28h185.62816a23.04 23.04 0 0 1 14.60736 5.2224l142.18752 116.55936a32.59648 32.59648 0 0 0 20.81536 7.64928A33.15712 33.15712 0 0 0 591.36 754.1888V270.26176a33.15712 33.15712 0 0 0-33.5616-33.38752 32.5888 32.5888 0 0 0-20.8128 7.64928l-142.19008 116.56192a23.04 23.04 0 0 1-14.60736 5.2224z"  /><path fill="#000000" d="M765.44 689.92a23.04 23.04 0 0 1 15.40864-21.73696c2.91072-1.1008 76.75136-30.3104 76.75136-157.37344 0-126.13888-72.8448-151.16032-75.94496-152.1536a23.16032 23.16032 0 0 1-15.04512-28.80768 22.91968 22.91968 0 0 1 28.44416-15.29088C799.488 315.8784 903.68 348.76416 903.68 510.8096c0 161.1904-103.168 199.30368-107.56352 200.84736A23.05536 23.05536 0 0 1 765.44 689.92z"  /><path fill="#000000" d="M714.22976 584.10496a23.04 23.04 0 0 1 15.40864-21.73696c1.74336-0.75776 22.22336-10.60352 22.22336-51.37664 0-40.89088-20.94336-48.95488-21.15584-49.01632a23.04 23.04 0 0 1-15.50592-28.65664 23.04 23.04 0 0 1 28.65664-15.50848c2.20672 0.65792 54.08512 16.98048 54.08512 93.18144 0 75.35616-50.85952 94.09024-53.02272 94.85056a23.05536 23.05536 0 0 1-30.68928-21.73696z"  /></svg>