<?xml version="1.0" standalone="no"?><!DOCTYPE svg PUBLIC "-//W3C//DTD SVG 1.1//EN" "http://www.w3.org/Graphics/SVG/1.1/DTD/svg11.dtd"><svg class="icon" width="200px" height="200.00px" viewBox="0 0 1024 1024" version="1.1" xmlns="http://www.w3.org/2000/svg"><path fill="#000000" d="M381.44 714.24h263.68a23.04 23.04 0 0 1 23.04 23.04v47.36a154.88 154.88 0 0 1-309.76 0V737.28a23.04 23.04 0 0 1 23.04-23.04z m240.64 46.08h-217.6v24.32a108.8 108.8 0 0 0 217.6 0z"  /><path fill="#000000" d="M645.12 760.32H381.44a23.04 23.04 0 0 1-23.04-23.04v-79.104A308.5824 308.5824 0 0 1 202.24 389.12 310.11328 310.11328 0 0 1 512 79.36a310.11072 310.11072 0 0 1 309.76 309.76 309.07904 309.07904 0 0 1-153.6 267.57888V737.28a23.04 23.04 0 0 1-23.04 23.04z m-240.64-46.08h217.6v-71.10912a23.04 23.04 0 0 1 12.3264-20.39808A263.21152 263.21152 0 0 0 775.68 389.12 263.97952 263.97952 0 0 0 512 125.44 263.97952 263.97952 0 0 0 248.32 389.12a262.81472 262.81472 0 0 0 143.616 234.83136 23.04 23.04 0 0 1 12.544 20.5056z"  /></svg>