<?xml version="1.0" standalone="no"?><!DOCTYPE svg PUBLIC "-//W3C//DTD SVG 1.1//EN" "http://www.w3.org/Graphics/SVG/1.1/DTD/svg11.dtd"><svg class="icon" width="200px" height="200.00px" viewBox="0 0 1024 1024" version="1.1" xmlns="http://www.w3.org/2000/svg"><path fill="#000000" d="M152.32 156.16h721.92a79.4496 79.4496 0 0 1 79.36 79.36v478.72a79.4496 79.4496 0 0 1-79.36 79.36h-721.92a79.4496 79.4496 0 0 1-79.36-79.36V235.52a79.4496 79.4496 0 0 1 79.36-79.36z m721.92 591.36a33.3184 33.3184 0 0 0 33.28-33.28V235.52a33.3184 33.3184 0 0 0-33.28-33.28h-721.92a33.3184 33.3184 0 0 0-33.28 33.28v478.72a33.3184 33.3184 0 0 0 33.28 33.28z"  /><path fill="#000000" d="M717.63712 870.4H308.47488a23.04 23.04 0 0 1 0-46.08h409.15712a23.04 23.04 0 0 1 0 46.08z"  /></svg>