<?xml version="1.0" standalone="no"?><!DOCTYPE svg PUBLIC "-//W3C//DTD SVG 1.1//EN" "http://www.w3.org/Graphics/SVG/1.1/DTD/svg11.dtd"><svg class="icon" width="200px" height="200.00px" viewBox="0 0 1024 1024" version="1.1" xmlns="http://www.w3.org/2000/svg"><path fill="#000000" d="M133.12 122.88a10.24 10.24 0 0 0-10.24 10.24v757.76a10.24 10.24 0 0 0 10.24 10.24h757.76a10.24 10.24 0 0 0 10.24-10.24V133.12a10.24 10.24 0 0 0-10.24-10.24H133.12m0-46.08h757.76a56.32 56.32 0 0 1 56.32 56.32v757.76a56.32 56.32 0 0 1-56.32 56.32H133.12a56.32 56.32 0 0 1-56.32-56.32V133.12a56.32 56.32 0 0 1 56.32-56.32z"  /><path fill="#000000" d="M513.28 808.96a23.04 23.04 0 0 1-23.04-23.04V509.44a23.04 23.04 0 0 1 46.08 0v276.48a23.04 23.04 0 0 1-23.04 23.04z"  /><path fill="#000000" d="M513.28 281.6a96 96 0 1 0 96 96 96.10752 96.10752 0 0 0-96-96m0-46.08a142.08 142.08 0 1 1-142.08 142.08A142.08 142.08 0 0 1 513.28 235.52z"  /></svg>