<?xml version="1.0" standalone="no"?><!DOCTYPE svg PUBLIC "-//W3C//DTD SVG 1.1//EN" "http://www.w3.org/Graphics/SVG/1.1/DTD/svg11.dtd"><svg class="icon" width="200px" height="200.00px" viewBox="0 0 1024 1024" version="1.1" xmlns="http://www.w3.org/2000/svg"><path fill="#000000" d="M512.00768 74.23744a137.3184 137.3184 0 0 1 59.56352 13.67808l242.97728 117.80608A108.77952 108.77952 0 0 1 875.52 303.04512v181.97248a485.57056 485.57056 0 0 1-327.59808 458.624l-2.93632 0.96256a108.60544 108.60544 0 0 1-65.96608 0l-2.54208-0.832a485.632 485.632 0 0 1-327.98976-458.752v-181.97248A108.78208 108.78208 0 0 1 209.4592 205.72416l242.97728-117.80608a137.3184 137.3184 0 0 1 59.5712-13.68064z m0 829.44a61.99296 61.99296 0 0 0 18.91328-2.95168c179.35616-61.7856 298.52416-228.58496 298.52416-415.70816v-181.96992a62.43584 62.43584 0 0 0-34.9952-55.8592l-242.98752-117.80864a90.44736 90.44736 0 0 0-78.92224 0L229.56288 247.18848a62.43584 62.43584 0 0 0-34.9952 55.8592v181.97248a439.43936 439.43936 0 0 0 296.63744 415.09632 65.49504 65.49504 0 0 0 20.80256 3.56096z" /></svg>