<?xml version="1.0" standalone="no"?><!DOCTYPE svg PUBLIC "-//W3C//DTD SVG 1.1//EN" "http://www.w3.org/Graphics/SVG/1.1/DTD/svg11.dtd"><svg class="icon" width="200px" height="200.00px" viewBox="0 0 1024 1024" version="1.1" xmlns="http://www.w3.org/2000/svg"><path fill="#000000" d="M165.12 85.76h696.32a79.4496 79.4496 0 0 1 79.36 79.36v696.32a79.4496 79.4496 0 0 1-79.36 79.36h-696.32a79.4496 79.4496 0 0 1-79.36-79.36v-696.32a79.4496 79.4496 0 0 1 79.36-79.36z m696.32 808.96a33.3184 33.3184 0 0 0 33.28-33.28v-696.32a33.3184 33.3184 0 0 0-33.28-33.28h-696.32a33.3184 33.3184 0 0 0-33.28 33.28v696.32a33.3184 33.3184 0 0 0 33.28 33.28z"  /><path fill="#000000" d="M493.24032 755.84a23.04 23.04 0 0 1-15.16032-5.69088l-189.72672-165.80608a23.04 23.04 0 1 1 30.3232-34.69824l167.55456 146.432 213.77536-415.41632a23.04 23.04 0 1 1 40.96 21.08416l-227.24864 441.6a23.04 23.04 0 0 1-20.48 12.49792z"  /></svg>