<?xml version="1.0" standalone="no"?><!DOCTYPE svg PUBLIC "-//W3C//DTD SVG 1.1//EN" "http://www.w3.org/Graphics/SVG/1.1/DTD/svg11.dtd"><svg class="icon" width="200px" height="200.00px" viewBox="0 0 1024 1024" version="1.1" xmlns="http://www.w3.org/2000/svg"><path fill="#000000" d="M512.31488 124.16c214.016 0 388.15232 174.12352 388.15232 388.15232a383.85152 383.85152 0 0 1-76.74112 231.74912l33.38752 123.392a23.04 23.04 0 0 1-5.92896 22.28992 23.04 23.04 0 0 1-22.272 5.98272l-140.20864-37.57056a389.03808 389.03808 0 0 1-176.384 42.30912c-214.016 0-388.15488-174.12608-388.15488-388.15488S298.28608 124.16 512.31488 124.16z m289.86368 716.6976l-25.91744-95.7824a23.04 23.04 0 0 1 4.19072-20.3392 338.432 338.432 0 0 0 73.9328-212.42624c0-188.61824-153.45664-342.06976-342.06976-342.06976S170.24 323.69152 170.24 512.31232s153.45408 342.07488 342.07488 342.07488a342.54592 342.54592 0 0 0 162.67008-41.0752 23.04 23.04 0 0 1 16.93696-1.9968z"  /><path fill="#000000" d="M512 659.03616a23.04 23.04 0 0 1-23.04-23.04v-71.3728a23.04 23.04 0 0 1 22.93248-23.04c12.19072-0.14336 119.808-4.71808 119.808-119.70816-0.37376-11.99872-6.96576-122.3552-118.48448-122.3552h-1.0752c-115.55072 0.73216-119.73888 117.92384-119.8592 122.91328a23.04768 23.04768 0 0 1-46.08-1.12384c1.408-57.70752 37.8368-167.06048 165.632-167.86944 128.0768-0.8064 164.5184 109.45792 165.9264 167.87456 0 115.11552-83.56864 156.12416-142.74048 164.58752v50.08896a23.04 23.04 0 0 1-23.01952 23.04512z"  /><path fill="#000000" d="M512.30464 724.1728m-32.9728 0a32.9728 32.9728 0 1 0 65.9456 0 32.9728 32.9728 0 1 0-65.9456 0Z"  /></svg>