<?xml version="1.0" standalone="no"?><!DOCTYPE svg PUBLIC "-//W3C//DTD SVG 1.1//EN" "http://www.w3.org/Graphics/SVG/1.1/DTD/svg11.dtd"><svg class="icon" width="200px" height="200.00px" viewBox="0 0 1024 1024" version="1.1" xmlns="http://www.w3.org/2000/svg"><path fill="#000000" d="M229.7472 282.80576h612.29312c20.31104 0 82.11968 0 82.11968 87.23968v1.87392l-54.272 331.3792-0.512 1.59232c-7.1296 22.4896-23.82848 75.15648-81.04448 75.15648H283.45856c-55.99488 0-73.472-52.4416-80.93952-74.83648l-0.60416-1.81504-51.72736-328.98816v-1.792c0-56.24064 29.74208-89.80992 79.55968-89.80992z m648.32512 85.42208c-0.38144-37.57056-12.72064-39.34208-36.032-39.34208H229.7472c-16.30464 0-32.96768 5.03808-33.47968 41.984l50.56768 321.536c13.09696 38.4 24.3456 41.5488 36.62336 41.5488h504.87296c13.13024 0 24.192-3.072 36.608-41.4464z"  /><path fill="#000000" d="M716.67456 860.16a79.45216 79.45216 0 0 1-56.07936-22.88896A77.61664 77.61664 0 0 1 637.184 781.568a77.20448 77.20448 0 0 1 7.72352-33.82784 23.04 23.04 0 0 1 20.74624-13.02016h102.03136a23.04 23.04 0 0 1 20.7488 13.02528A77.2096 77.2096 0 0 1 796.16 781.568a77.62176 77.62176 0 0 1-23.4112 55.70304A79.43936 79.43936 0 0 1 716.67456 860.16zM683.264 780.8v0.768a31.87712 31.87712 0 0 0 9.65376 22.85824 34.048 34.048 0 0 0 47.50848 0A31.87968 31.87968 0 0 0 750.08 781.568v-0.768z m-337.53856 79.36a79.44704 79.44704 0 0 1-56.07424-22.8864A77.61664 77.61664 0 0 1 266.24 781.568a77.19936 77.19936 0 0 1 7.72096-33.82528 23.04 23.04 0 0 1 20.7488-13.02272h102.03392a23.04 23.04 0 0 1 20.7488 13.02272A77.1968 77.1968 0 0 1 425.216 781.568a77.61664 77.61664 0 0 1-23.41632 55.70304A79.45472 79.45472 0 0 1 345.72544 860.16zM312.32 780.8v0.768a31.87712 31.87712 0 0 0 9.65632 22.85824 34.048 34.048 0 0 0 47.50848 0 31.87456 31.87456 0 0 0 9.6512-22.85824v-0.768z"  /><path fill="#000000" d="M197.49376 554.4704a23.04 23.04 0 0 1-22.73024-19.456L129.49504 248.32H79.36a23.04 23.04 0 0 1 0-46.08h69.82144a23.04 23.04 0 0 1 22.7584 19.456l48.33792 306.14528a23.06048 23.06048 0 0 1-22.784 26.624z"  /></svg>