<?xml version="1.0" standalone="no"?><!DOCTYPE svg PUBLIC "-//W3C//DTD SVG 1.1//EN" "http://www.w3.org/Graphics/SVG/1.1/DTD/svg11.dtd"><svg class="icon" width="200px" height="200.00px" viewBox="0 0 1024 1024" version="1.1" xmlns="http://www.w3.org/2000/svg"><path fill="#000000" d="M390.7328 867.68128L163.13088 640.0768a79.4496 79.4496 0 0 1 0-112.2304l199.68-199.68-6.62272-124.8a78.8096 78.8096 0 0 1 46.94784-76.68736 78.80704 78.80704 0 0 1 88.41728 16.3712l396.18816 396.19072a78.8096 78.8096 0 0 1 16.37376 88.41728 78.80704 78.80704 0 0 1-76.68736 46.9504l-124.79488-6.62784-199.68256 199.68256a79.4496 79.4496 0 0 1-112.2176 0.01536zM458.97728 175.6416a32.512 32.512 0 0 0-37.07904-6.86592 32.512 32.512 0 0 0-19.6864 32.15872l7.15776 135.04256a23.04 23.04 0 0 1-6.71488 17.5104L195.712 560.43264a33.31584 33.31584 0 0 0 0 47.0656l227.60192 227.60192a33.3184 33.3184 0 0 0 47.06304 0l206.94272-206.94272a23.04 23.04 0 0 1 17.5104-6.71488l135.04 7.16032a32.512 32.512 0 0 0 32.15872-19.6864 32.5248 32.5248 0 0 0-6.86592-37.07904z"  /><path fill="#000000" d="M146.6368 884.25472a23.04 23.04 0 0 1 0-32.58368l119.4752-119.47264a23.04 23.04 0 0 1 32.58368 32.58368l-119.4752 119.4752a23.04 23.04 0 0 1-32.58112 0z"  /></svg>