<?xml version="1.0" standalone="no"?><!DOCTYPE svg PUBLIC "-//W3C//DTD SVG 1.1//EN" "http://www.w3.org/Graphics/SVG/1.1/DTD/svg11.dtd"><svg class="icon" width="200px" height="200.00px" viewBox="0 0 1024 1024" version="1.1" xmlns="http://www.w3.org/2000/svg"><path fill="#000000" d="M849.83552 756.26752a78.25408 78.25408 0 0 1-39.61088-10.7264L680.96 670.87616a23.04 23.04 0 0 1-11.52-19.95008v-229.21216a23.04 23.04 0 0 1 11.52-19.95008l129.26464-74.67008a78.26432 78.26432 0 0 1 39.60832-10.72384 78.86336 78.86336 0 0 1 29.92384 5.888 79.99488 79.99488 0 0 1 25.2544 16.384 78.43584 78.43584 0 0 1 24.26624 57.1648v281.0112a78.43328 78.43328 0 0 1-24.26624 57.16224 80.01536 80.01536 0 0 1-25.25184 16.384 78.87872 78.87872 0 0 1-29.92384 5.90336z m-134.31296-118.64064l117.76 68.01408a32.30464 32.30464 0 0 0 16.55552 4.54656 33.024 33.024 0 0 0 12.52352-2.4832 34.18112 34.18112 0 0 0 10.77504-6.98624 32.768 32.768 0 0 0 10.07104-23.89504v-281.0112a32.768 32.768 0 0 0-10.0736-23.8976 34.0992 34.0992 0 0 0-10.77248-6.98112 33.00608 33.00608 0 0 0-12.52352-2.4832 32.32 32.32 0 0 0-16.55808 4.54656l-117.76 68.0192z"  /><path fill="#000000" d="M174.08 218.88h462.08a79.4496 79.4496 0 0 1 79.36 79.36v428.83584a79.4496 79.4496 0 0 1-79.36 79.36H174.08a79.4496 79.4496 0 0 1-79.36-79.36V298.24a79.4496 79.4496 0 0 1 79.36-79.36z m462.08 541.47584a33.3184 33.3184 0 0 0 33.28-33.28V298.24a33.3184 33.3184 0 0 0-33.28-33.28H174.08a33.3184 33.3184 0 0 0-33.28 33.28v428.83584a33.3184 33.3184 0 0 0 33.28 33.28z"  /><path fill="#000000" d="M284.32128 563.2a100.54912 100.54912 0 0 0 100.2624 94.72h21.87008a100.54912 100.54912 0 0 0 100.26496-94.72h-222.39744m-5.86496-46.08h234.12992A40.37632 40.37632 0 0 1 552.96 557.49632 146.50368 146.50368 0 0 1 406.45632 704h-21.87264A146.50368 146.50368 0 0 1 238.08 557.49632 40.37632 40.37632 0 0 1 278.45632 517.12z"  /><path fill="#000000" d="M394.24 366.08a42.944 42.944 0 0 0-43.52 42.24 42.944 42.944 0 0 0 43.52 42.24 42.944 42.944 0 0 0 43.52-42.24 42.944 42.944 0 0 0-43.52-42.24m0-46.08c49.4848 0 89.6 39.54176 89.6 88.32S443.7248 496.64 394.24 496.64s-89.6-39.54176-89.6-88.32 40.1152-88.32 89.6-88.32z"  /></svg>