<?xml version="1.0" standalone="no"?><!DOCTYPE svg PUBLIC "-//W3C//DTD SVG 1.1//EN" "http://www.w3.org/Graphics/SVG/1.1/DTD/svg11.dtd"><svg class="icon" width="200px" height="200.00px" viewBox="0 0 1024 1024" version="1.1" xmlns="http://www.w3.org/2000/svg"><path fill="#000000" d="M144.64 193.28h721.92a79.4496 79.4496 0 0 1 79.36 79.36v478.72a79.4496 79.4496 0 0 1-79.36 79.36h-721.92a79.4496 79.4496 0 0 1-79.36-79.36V272.64a79.4496 79.4496 0 0 1 79.36-79.36z m721.92 591.36a33.3184 33.3184 0 0 0 33.28-33.28V272.64a33.3184 33.3184 0 0 0-33.28-33.28h-721.92a33.3184 33.3184 0 0 0-33.28 33.28v478.72a33.3184 33.3184 0 0 0 33.28 33.28z"  /><path fill="#000000" d="M760.95744 707.84h-497.92a23.04 23.04 0 0 1 0-46.08h497.92a23.04 23.04 0 0 1 0 46.08z"  /><path fill="#000000" d="M261.12 387.84m-40.96 0a40.96 40.96 0 1 0 81.92 0 40.96 40.96 0 1 0-81.92 0Z"  /><path fill="#000000" d="M427.52 387.84m-40.96 0a40.96 40.96 0 1 0 81.92 0 40.96 40.96 0 1 0-81.92 0Z"  /><path fill="#000000" d="M596.48 387.84m-40.96 0a40.96 40.96 0 1 0 81.92 0 40.96 40.96 0 1 0-81.92 0Z"  /><path fill="#000000" d="M762.88 387.84m-40.96 0a40.96 40.96 0 1 0 81.92 0 40.96 40.96 0 1 0-81.92 0Z"  /><path fill="#000000" d="M345.6 536.32m-40.96 0a40.96 40.96 0 1 0 81.92 0 40.96 40.96 0 1 0-81.92 0Z"  /><path fill="#000000" d="M514.56 536.32m-40.96 0a40.96 40.96 0 1 0 81.92 0 40.96 40.96 0 1 0-81.92 0Z"  /><path fill="#000000" d="M680.96 536.32m-40.96 0a40.96 40.96 0 1 0 81.92 0 40.96 40.96 0 1 0-81.92 0Z"  /></svg>