<?xml version="1.0" standalone="no"?><!DOCTYPE svg PUBLIC "-//W3C//DTD SVG 1.1//EN" "http://www.w3.org/Graphics/SVG/1.1/DTD/svg11.dtd"><svg class="icon" width="200px" height="200.00px" viewBox="0 0 1024 1024" version="1.1" xmlns="http://www.w3.org/2000/svg"><path fill="#000000" d="M534.5408 903.3344h-337.92a78.83008 78.83008 0 0 1-56.11776-23.24736 78.8096 78.8096 0 0 1-23.24736-56.1152V225.28a78.848 78.848 0 0 1 23.24736-56.1152A78.848 78.848 0 0 1 196.6208 145.92h56.32a23.04 23.04 0 0 1 23.04 23.04v19.35104a33.32352 33.32352 0 0 0 33.28 33.28h317.44a33.3184 33.3184 0 0 0 33.28-33.28V168.96a23.04 23.04 0 0 1 23.04-23.04h61.44a78.848 78.848 0 0 1 56.11776 23.23968A78.87872 78.87872 0 0 1 823.8208 225.28v211.06176a23.04 23.04 0 0 1-23.04 23.04h-209.92a33.32096 33.32096 0 0 0-33.28 33.28v387.63008a23.04 23.04 0 0 1-6.74816 16.2944 23.04 23.04 0 0 1-16.29184 6.74816zM196.6208 192a33.05472 33.05472 0 0 0-23.53152 9.728 33.0624 33.0624 0 0 0-9.74848 23.552v598.69184a33.024 33.024 0 0 0 9.74592 23.5264 33.0624 33.0624 0 0 0 23.552 9.75616h314.88V492.66176a79.45216 79.45216 0 0 1 79.36-79.36h186.88V225.28A33.09312 33.09312 0 0 0 768 201.728a33.04448 33.04448 0 0 0-23.5392-9.728h-38.48704a79.45728 79.45728 0 0 1-79.27296 75.6736h-317.44A79.46496 79.46496 0 0 1 229.98016 192z"  /><path fill="#000000" d="M309.2608 58.53184h317.44a79.4496 79.4496 0 0 1 79.36 79.36v40.96a79.4496 79.4496 0 0 1-79.36 79.36h-317.44a79.4496 79.4496 0 0 1-79.36-79.36v-40.96a79.4496 79.4496 0 0 1 79.36-79.36z m317.44 153.6a33.3184 33.3184 0 0 0 33.28-33.28v-40.96a33.3184 33.3184 0 0 0-33.28-33.28h-317.44a33.3184 33.3184 0 0 0-33.28 33.28v40.96a33.3184 33.3184 0 0 0 33.28 33.28z"  /><path fill="#000000" d="M590.85824 411.80928h241.152a79.4496 79.4496 0 0 1 79.36 79.36V896a79.4496 79.4496 0 0 1-79.36 79.36h-241.152a79.4496 79.4496 0 0 1-79.36-79.36V491.16928a79.4496 79.4496 0 0 1 79.36-79.36zM832.01024 929.28a33.3184 33.3184 0 0 0 33.28-33.28V491.16928a33.3184 33.3184 0 0 0-33.28-33.28h-241.152a33.3184 33.3184 0 0 0-33.28 33.28V896a33.3184 33.3184 0 0 0 33.28 33.28z"  /></svg>