<?xml version="1.0" standalone="no"?><!DOCTYPE svg PUBLIC "-//W3C//DTD SVG 1.1//EN" "http://www.w3.org/Graphics/SVG/1.1/DTD/svg11.dtd"><svg class="icon" width="200px" height="200.00px" viewBox="0 0 1024 1024" version="1.1" xmlns="http://www.w3.org/2000/svg"><path d="M788.48 944.64H240.64a78.848 78.848 0 0 1-56.1152-23.2448A78.848 78.848 0 0 1 161.28 865.28V256a78.848 78.848 0 0 1 23.2448-56.11776A78.848 78.848 0 0 1 240.64 176.64h56.32a23.04 23.04 0 0 1 23.04 23.04v20.48a33.3184 33.3184 0 0 0 33.28 33.28h317.44a33.31584 33.31584 0 0 0 33.28-33.28v-20.48a23.04 23.04 0 0 1 23.04-23.04h61.44a78.848 78.848 0 0 1 56.1152 23.2448A78.848 78.848 0 0 1 867.84 256v609.28a78.848 78.848 0 0 1-23.2448 56.11776A78.848 78.848 0 0 1 788.48 944.64zM240.64 222.72a33.05728 33.05728 0 0 0-23.53152 9.74592A33.0624 33.0624 0 0 0 207.36 256v609.28a33.05984 33.05984 0 0 0 9.74848 23.53408A33.05984 33.05984 0 0 0 240.64 898.56h547.84a33.06496 33.06496 0 0 0 23.53408-9.74848A33.0624 33.0624 0 0 0 821.76 865.28V256a33.05984 33.05984 0 0 0-9.74848-23.53408A33.06496 33.06496 0 0 0 788.48 222.72h-38.44352A79.45472 79.45472 0 0 1 670.72 299.52H353.28a79.45728 79.45728 0 0 1-79.31904-76.8z"  /><path d="M353.28 99.84h317.44a79.4496 79.4496 0 0 1 79.36 79.36v40.96a79.4496 79.4496 0 0 1-79.36 79.36H353.28a79.4496 79.4496 0 0 1-79.36-79.36V179.2a79.4496 79.4496 0 0 1 79.36-79.36z m317.44 153.6a33.3184 33.3184 0 0 0 33.28-33.28V179.2a33.3184 33.3184 0 0 0-33.28-33.28H353.28a33.3184 33.3184 0 0 0-33.28 33.28v40.96a33.3184 33.3184 0 0 0 33.28 33.28z"  /><path d="M322.56 595.2h396.8" fill="#FFFFFF" /><path d="M299.52 595.2a23.04 23.04 0 0 1 23.04-23.04h396.8a23.04 23.04 0 0 1 23.04 23.04 23.04 23.04 0 0 1-23.04 23.04H322.56a23.04 23.04 0 0 1-23.04-23.04z"  /><path d="M322.56 765.44h396.8" fill="#FFFFFF" /><path d="M299.52 765.44a23.04 23.04 0 0 1 23.04-23.04h396.8a23.04 23.04 0 0 1 23.04 23.04 23.04 23.04 0 0 1-23.04 23.04H322.56a23.04 23.04 0 0 1-23.04-23.04z"  /><path d="M322.56 424.96h396.8" fill="#FFFFFF" /><path d="M299.52 424.96a23.04 23.04 0 0 1 23.04-23.04h396.8a23.04 23.04 0 0 1 23.04 23.04 23.04 23.04 0 0 1-23.04 23.04H322.56a23.04 23.04 0 0 1-23.04-23.04z"  /></svg>