<?xml version="1.0" standalone="no"?><!DOCTYPE svg PUBLIC "-//W3C//DTD SVG 1.1//EN" "http://www.w3.org/Graphics/SVG/1.1/DTD/svg11.dtd"><svg class="icon" width="200px" height="200.00px" viewBox="0 0 1024 1024" version="1.1" xmlns="http://www.w3.org/2000/svg"><path fill="#000000" d="M512 122.88c-214.56128 0-389.12 174.55872-389.12 389.12s174.55872 389.12 389.12 389.12 389.12-174.55872 389.12-389.12S726.56128 122.88 512 122.88m0-46.08A435.2 435.2 0 1 1 76.8 512 435.2 435.2 0 0 1 512 76.8z"  /><path fill="#000000" d="M471.04 709.12a40.96 40.96 0 1 0 81.92 0 40.96 40.96 0 1 0-81.92 0Z"  /><path fill="#000000" d="M512 583.37024V273.92"  /><path fill="#000000" d="M537.6 273.92v309.45024a25.6 25.6 0 0 1-25.6 25.6 25.6 25.6 0 0 1-25.6-25.6V273.92a25.6 25.6 0 0 1 25.6-25.6 25.6 25.6 0 0 1 25.6 25.6z"  /></svg>