<?xml version="1.0" standalone="no"?><!DOCTYPE svg PUBLIC "-//W3C//DTD SVG 1.1//EN" "http://www.w3.org/Graphics/SVG/1.1/DTD/svg11.dtd"><svg class="icon" width="200px" height="200.00px" viewBox="0 0 1024 1024" version="1.1" xmlns="http://www.w3.org/2000/svg"><path fill="#000000" d="M226.55488 857.6a23.04 23.04 0 0 1-16.79872-38.80448l622.08-663.04a23.04 23.04 0 1 1 33.60512 31.52896l-622.08 663.04A22.97856 22.97856 0 0 1 226.55488 857.6z"  /><path fill="#000000" d="M649.96096 833.65632a78.16448 78.16448 0 0 1-50.03008-18.09408l-135.81824-111.33696H286.72256a79.4496 79.4496 0 0 1-79.36-79.36v-225.28a79.4496 79.4496 0 0 1 79.36-79.36h177.38752l135.8208-111.33952a78.15936 78.15936 0 0 1 50.02752-18.09408 79.64672 79.64672 0 0 1 79.64416 79.47008v483.92704a79.64672 79.64672 0 0 1-79.63904 79.46752zM286.72256 366.30528a33.31584 33.31584 0 0 0-33.28 33.28v225.28a33.3184 33.3184 0 0 0 33.28 33.28h185.62816a23.04 23.04 0 0 1 14.60736 5.2224l142.18752 116.55936a32.59648 32.59648 0 0 0 20.81536 7.64928 33.15712 33.15712 0 0 0 33.5616-33.38752V270.26176a33.15712 33.15712 0 0 0-33.5616-33.38752 32.5888 32.5888 0 0 0-20.8128 7.64928l-142.19008 116.56192a23.04 23.04 0 0 1-14.60736 5.2224z"  /></svg>