<?xml version="1.0" standalone="no"?><!DOCTYPE svg PUBLIC "-//W3C//DTD SVG 1.1//EN" "http://www.w3.org/Graphics/SVG/1.1/DTD/svg11.dtd"><svg class="icon" width="200px" height="200.00px" viewBox="0 0 1024 1024" version="1.1" xmlns="http://www.w3.org/2000/svg"><path fill="#000000" d="M321.28 199.68a121.6 121.6 0 0 0 0 243.2h111.78752a9.82528 9.82528 0 0 0 9.81248-9.81248V321.28A121.73824 121.73824 0 0 0 321.28 199.68m0-46.08a167.68 167.68 0 0 1 167.68 167.68v111.78752A55.89248 55.89248 0 0 1 433.06752 488.96H321.28a167.68 167.68 0 0 1 0-335.36z"  /><path fill="#000000" d="M702.72 199.68a121.73824 121.73824 0 0 0-121.6 121.6v111.78752a9.82528 9.82528 0 0 0 9.81248 9.81248H702.72a121.6 121.6 0 0 0 0-243.2m0-46.08a167.68 167.68 0 0 1 0 335.36h-111.78752A55.89248 55.89248 0 0 1 535.04 433.06752V321.28A167.68 167.68 0 0 1 702.72 153.6z"  /><path fill="#000000" d="M321.28 581.12a121.6 121.6 0 1 0 121.6 121.6v-111.78752a9.82528 9.82528 0 0 0-9.81248-9.81248H321.28m0-46.08h111.78752A55.89248 55.89248 0 0 1 488.96 590.93248V702.72a167.68 167.68 0 1 1-167.68-167.68z"  /><path fill="#000000" d="M590.93248 581.12a9.82528 9.82528 0 0 0-9.81248 9.81248V702.72a121.6 121.6 0 1 0 121.6-121.6h-111.78752m0-46.08H702.72a167.68 167.68 0 1 1-167.68 167.68v-111.78752A55.89248 55.89248 0 0 1 590.93248 535.04z"  /></svg>