<?xml version="1.0" standalone="no"?><!DOCTYPE svg PUBLIC "-//W3C//DTD SVG 1.1//EN" "http://www.w3.org/Graphics/SVG/1.1/DTD/svg11.dtd"><svg class="icon" width="200px" height="200.00px" viewBox="0 0 1024 1024" version="1.1" xmlns="http://www.w3.org/2000/svg"><path d="M180.66944 565.76A21.97504 21.97504 0 0 0 158.72 587.70944 200.9984 200.9984 0 0 0 359.49056 788.48h33.65888A200.9984 200.9984 0 0 0 593.92 587.70944a21.97504 21.97504 0 0 0-21.94944-21.94944H180.66944m0-46.08h391.30112A68.02944 68.02944 0 0 1 640 587.70944 246.85056 246.85056 0 0 1 393.14944 834.56h-33.65888A246.85056 246.85056 0 0 1 112.64 587.70944 68.02944 68.02944 0 0 1 180.66944 519.68z"  /><path d="M377.6 235.52c-57.16992 0-103.68 45.93664-103.68 102.4s46.51008 102.4 103.68 102.4 103.68-45.93664 103.68-102.4-46.51008-102.4-103.68-102.4m0-46.08c82.71104 0 149.76 66.47552 149.76 148.48s-67.04896 148.48-149.76 148.48S227.84 419.92448 227.84 337.92s67.04896-148.48 149.76-148.48z"  /><path d="M706.56 325.12h181.76" fill="#FFFFFF" /><path d="M683.52 325.12a23.04 23.04 0 0 1 23.04-23.04h181.76a23.04 23.04 0 0 1 23.04 23.04 23.04 23.04 0 0 1-23.04 23.04h-181.76a23.04 23.04 0 0 1-23.04-23.04z"  /><path d="M706.56 512h181.76" fill="#FFFFFF" /><path d="M683.52 512a23.04 23.04 0 0 1 23.04-23.04h181.76a23.04 23.04 0 0 1 23.04 23.04 23.04 23.04 0 0 1-23.04 23.04h-181.76a23.04 23.04 0 0 1-23.04-23.04z"  /><path d="M706.56 698.88h181.76" fill="#FFFFFF" /><path d="M683.52 698.88a23.04 23.04 0 0 1 23.04-23.04h181.76a23.04 23.04 0 0 1 23.04 23.04 23.04 23.04 0 0 1-23.04 23.04h-181.76a23.04 23.04 0 0 1-23.04-23.04z"  /></svg>