<?xml version="1.0" standalone="no"?><!DOCTYPE svg PUBLIC "-//W3C//DTD SVG 1.1//EN" "http://www.w3.org/Graphics/SVG/1.1/DTD/svg11.dtd"><svg class="icon" width="200px" height="200.00px" viewBox="0 0 1024 1024" version="1.1" xmlns="http://www.w3.org/2000/svg"><path fill="#000000" d="M512.31488 124.16c214.016 0 388.15232 174.12352 388.15232 388.15232a383.85152 383.85152 0 0 1-76.74112 231.74912l33.38752 123.392a23.04 23.04 0 0 1-5.92896 22.28992 23.04 23.04 0 0 1-22.272 5.98272l-140.20864-37.57056a389.03808 389.03808 0 0 1-176.384 42.30912c-214.016 0-388.15488-174.12608-388.15488-388.15488S298.28608 124.16 512.31488 124.16z m289.86368 716.6976l-25.91744-95.7824a23.04 23.04 0 0 1 4.19072-20.3392 338.432 338.432 0 0 0 73.9328-212.42624c0-188.61824-153.45664-342.06976-342.06976-342.06976S170.24 323.69152 170.24 512.31232s153.45408 342.07488 342.07488 342.07488a342.54592 342.54592 0 0 0 162.67008-41.0752 23.04 23.04 0 0 1 16.93696-1.9968z" /></svg>