<?xml version="1.0" standalone="no"?><!DOCTYPE svg PUBLIC "-//W3C//DTD SVG 1.1//EN" "http://www.w3.org/Graphics/SVG/1.1/DTD/svg11.dtd"><svg class="icon" width="200px" height="200.00px" viewBox="0 0 1024 1024" version="1.1" xmlns="http://www.w3.org/2000/svg"><path fill="#000000" d="M545.92256 832.62208a357.03552 357.03552 0 0 1-66.78016-6.28992 23.04 23.04 0 0 1-17.20576-14.4128 23.04 23.04 0 0 1 3.22304-22.21312 162.93888 162.93888 0 0 0 33.72544-99.8016 164.66688 164.66688 0 0 0-164.48-164.48 162.94656 162.94656 0 0 0-99.8016 33.72544 23.04 23.04 0 0 1-22.21312 3.22304 23.04 23.04 0 0 1-14.4128-17.2032 356.96896 356.96896 0 0 1-6.28992-66.7776 356.72576 356.72576 0 0 1 7.19616-71.36512 352.6016 352.6016 0 0 1 20.65152-66.52416A354.48064 354.48064 0 0 1 252.1984 280.32a356.74112 356.74112 0 0 1 43.24608-52.41088 356.52608 356.52608 0 0 1 52.40064-43.2384 354.32448 354.32448 0 0 1 60.1856-32.66304 352.61184 352.61184 0 0 1 66.5344-20.65152 359.104 359.104 0 0 1 142.73024 0 352.60928 352.60928 0 0 1 66.52416 20.65152 354.32192 354.32192 0 0 1 60.18048 32.66304 356.736 356.736 0 0 1 52.40832 43.24096 356.84352 356.84352 0 0 1 43.23328 52.40832 354.368 354.368 0 0 1 32.6656 60.18048 352.58368 352.58368 0 0 1 20.64896 66.52416 356.71808 356.71808 0 0 1 7.19616 71.36512 353.37472 353.37472 0 0 1-20.31104 118.50496 352.512 352.512 0 0 1-49.10848 92.16l30.01856 110.92992a23.04 23.04 0 0 1-5.9264 22.28992 23.04 23.04 0 0 1-22.272 5.98272l-126.3872-33.86624a352.38912 352.38912 0 0 1-71.936 27.136 355.47648 355.47648 0 0 1-88.3072 11.09504z m-23.88224-46.99392a311.02464 311.02464 0 0 0 100.72576-8.73728 306.31936 306.31936 0 0 0 69.69088-27.34592 23.04 23.04 0 0 1 16.93696-1.9968l96.4352 25.82784-22.528-83.29472a23.04 23.04 0 0 1 4.19072-20.3392 306.87488 306.87488 0 0 0 48.94464-88.26624 307.42016 307.42016 0 0 0 17.664-103.09376 310.4896 310.4896 0 0 0-6.28736-62.12608 306.38336 306.38336 0 0 0-17.9456-57.81248 308.1472 308.1472 0 0 0-28.416-52.33664 310.6304 310.6304 0 0 0-37.632-45.62176 310.56128 310.56128 0 0 0-45.62176-37.632 308.13696 308.13696 0 0 0-52.33408-28.416 306.45248 306.45248 0 0 0-57.81248-17.9456 312.80896 312.80896 0 0 0-124.25472 0 306.44736 306.44736 0 0 0-57.81248 17.9456 308.15744 308.15744 0 0 0-52.33408 28.416 310.37696 310.37696 0 0 0-45.6192 37.632 310.49728 310.49728 0 0 0-37.6448 45.62432 308.19072 308.19072 0 0 0-28.416 52.33408 306.30144 306.30144 0 0 0-17.9456 57.80992 310.50496 310.50496 0 0 0-6.26176 62.12864q0 11.9552 0.91392 23.87712a208.82688 208.82688 0 0 1 95.72352-22.9248 210.79808 210.79808 0 0 1 210.56 210.56 208.79872 208.79872 0 0 1-22.91968 95.73376z"  /><path fill="#000000" d="M334.40512 479.34464a210.56 210.56 0 1 1-91.776 400.10496l-67.92704 18.19904A23.04 23.04 0 0 1 146.49856 869.376l15.74656-58.19648a208.17664 208.17664 0 0 1-38.4-121.27488 210.79808 210.79808 0 0 1 210.56-210.56z m0 375.04a164.48 164.48 0 1 0-164.48-164.48 162.72384 162.72384 0 0 0 35.54304 102.144 23.04 23.04 0 0 1 4.19072 20.3392l-8.22784 30.40256 37.82656-10.13504a23.04 23.04 0 0 1 16.93696 1.9968 164.6848 164.6848 0 0 0 78.21056 19.73248z"  /></svg>