<?xml version="1.0" standalone="no"?><!DOCTYPE svg PUBLIC "-//W3C//DTD SVG 1.1//EN" "http://www.w3.org/Graphics/SVG/1.1/DTD/svg11.dtd"><svg class="icon" width="200px" height="200.00px" viewBox="0 0 1024 1024" version="1.1" xmlns="http://www.w3.org/2000/svg"><path d="M491.52 325.12h396.8" fill="#FFFFFF" /><path d="M468.48 325.12a23.04 23.04 0 0 1 23.04-23.04h396.8a23.04 23.04 0 0 1 23.04 23.04 23.04 23.04 0 0 1-23.04 23.04H491.52a23.04 23.04 0 0 1-23.04-23.04z"  /><path d="M491.52 512h396.8" fill="#FFFFFF" /><path d="M468.48 512a23.04 23.04 0 0 1 23.04-23.04h396.8a23.04 23.04 0 0 1 23.04 23.04 23.04 23.04 0 0 1-23.04 23.04H491.52a23.04 23.04 0 0 1-23.04-23.04z"  /><path d="M491.52 698.88h396.8" fill="#FFFFFF" /><path d="M468.48 698.88a23.04 23.04 0 0 1 23.04-23.04h396.8a23.04 23.04 0 0 1 23.04 23.04 23.04 23.04 0 0 1-23.04 23.04H491.52a23.04 23.04 0 0 1-23.04-23.04z"  /><path d="M168.96 230.4a10.24 10.24 0 0 0-10.24 10.24v194.56a10.24 10.24 0 0 0 10.24 10.24h194.56a10.24 10.24 0 0 0 10.24-10.24V240.64a10.24 10.24 0 0 0-10.24-10.24H168.96m0-46.08h194.56a56.32 56.32 0 0 1 56.32 56.32v194.56a56.32 56.32 0 0 1-56.32 56.32H168.96a56.32 56.32 0 0 1-56.32-56.32V240.64a56.32 56.32 0 0 1 56.32-56.32z"  /><path d="M168.96 578.56a10.24 10.24 0 0 0-10.24 10.24v194.56a10.24 10.24 0 0 0 10.24 10.24h194.56a10.24 10.24 0 0 0 10.24-10.24v-194.56a10.24 10.24 0 0 0-10.24-10.24H168.96m0-46.08h194.56a56.32 56.32 0 0 1 56.32 56.32v194.56a56.32 56.32 0 0 1-56.32 56.32H168.96a56.32 56.32 0 0 1-56.32-56.32v-194.56a56.32 56.32 0 0 1 56.32-56.32z"  /></svg>