<?xml version="1.0" standalone="no"?><!DOCTYPE svg PUBLIC "-//W3C//DTD SVG 1.1//EN" "http://www.w3.org/Graphics/SVG/1.1/DTD/svg11.dtd"><svg class="icon" width="200px" height="200.00px" viewBox="0 0 1024 1024" version="1.1" xmlns="http://www.w3.org/2000/svg"><path fill="#000000" d="M512.00256 929.28a114.51392 114.51392 0 0 1-44.84864-9.0624 114.74432 114.74432 0 0 1-36.608-24.6784 114.75968 114.75968 0 0 1-24.6784-36.608 114.48576 114.48576 0 0 1-9.0624-44.84864 23.04 23.04 0 0 1 23.04-23.04h184.32a23.04 23.04 0 0 1 23.04 23.04 114.48832 114.48832 0 0 1-9.0624 44.84864 114.7904 114.7904 0 0 1-24.6784 36.608 114.79296 114.79296 0 0 1-36.608 24.6784 114.49344 114.49344 0 0 1-44.85376 9.0624z m-65.19552-92.16q0.68864 1.9456 1.49504 3.85536a68.91008 68.91008 0 0 0 14.8224 21.9776 68.91008 68.91008 0 0 0 21.9776 14.8224A68.68224 68.68224 0 0 0 512.00256 883.2a68.66432 68.66432 0 0 0 26.89536-5.42208 68.92032 68.92032 0 0 0 21.97504-14.81984 68.92544 68.92544 0 0 0 14.8224-21.9776q0.80896-1.90976 1.4976-3.85792z"  /><path fill="#000000" d="M772.3264 837.12H254.2336a108.8128 108.8128 0 0 1-103.92064-73.76896 108.81536 108.81536 0 0 1 35.3664-122.43712L261.12 580.864v-216.064A249.8816 249.8816 0 0 1 510.72 115.2a249.8816 249.8816 0 0 1 249.6 249.6v211.99104l80.56064 64.12288a108.8 108.8 0 0 1 35.3664 122.43712A108.8 108.8 0 0 1 772.3264 837.12zM510.72 161.28a203.7504 203.7504 0 0 0-203.52 203.52v227.1744a23.04 23.04 0 0 1-8.704 18.02752l-84.13184 66.96704c-26.20928 20.86144-27.80672 50.44992-20.56192 71.18336S220.736 791.04 254.2336 791.04h518.0928c33.4976 0 53.17376-22.15424 60.416-42.89024s5.64736-50.32192-20.56192-71.18336l-89.25184-71.04256a23.04 23.04 0 0 1-8.704-18.02752V364.8A203.7504 203.7504 0 0 0 510.72 161.28z"  /></svg>