<?xml version="1.0" standalone="no"?><!DOCTYPE svg PUBLIC "-//W3C//DTD SVG 1.1//EN" "http://www.w3.org/Graphics/SVG/1.1/DTD/svg11.dtd"><svg class="icon" width="200px" height="200.00px" viewBox="0 0 1024 1024" version="1.1" xmlns="http://www.w3.org/2000/svg"><path fill="#000000" d="M510.8096 76.8h0.40704a202.46784 202.46784 0 0 1 202.24 202.24v221.21216a202.4448 202.4448 0 0 1-404.88704 0V279.04a202.46784 202.46784 0 0 1 202.24-202.24z m0 579.61216a156.416 156.416 0 0 0 156.56704-156.16V279.04a156.33664 156.33664 0 0 0-156.16-156.16h-0.40704a156.33664 156.33664 0 0 0-156.16 156.16v221.21216a156.33664 156.33664 0 0 0 156.16 156.16z"  /><path fill="#000000" d="M505.92512 788.35712c-259.64032 0-290.4448-236.30848-290.72384-238.6944a23.04 23.04 0 0 1 45.75488-5.44c1.0112 8.17408 26.95424 198.0544 244.96896 198.0544 219.01568 0 253.92128-190.976 255.30112-199.09888a23.04 23.04 0 0 1 45.46048 7.5264c-0.39168 2.37568-42.0224 237.65248-300.7616 237.65248z"  /><path fill="#000000" d="M511.0144 944.9216a23.04 23.04 0 0 1-23.04-23.04v-156.56448a23.04 23.04 0 0 1 46.08 0v156.56448a23.04 23.04 0 0 1-23.04 23.04z"  /><path fill="#000000" d="M202.23488 913.92a23.04 23.04 0 0 1-16.79872-38.80448l622.08-663.04a23.04 23.04 0 1 1 33.60512 31.52896l-622.08 663.04A22.97856 22.97856 0 0 1 202.23488 913.92z"  /></svg>