<?xml version="1.0" standalone="no"?><!DOCTYPE svg PUBLIC "-//W3C//DTD SVG 1.1//EN" "http://www.w3.org/Graphics/SVG/1.1/DTD/svg11.dtd"><svg class="icon" width="200px" height="200.00px" viewBox="0 0 1024 1024" version="1.1" xmlns="http://www.w3.org/2000/svg"><path fill="#000000" d="M512 199.68c-190.56384 0-345.6 155.03616-345.6 345.6s155.03616 345.6 345.6 345.6 345.6-155.03616 345.6-345.6S702.56384 199.68 512 199.68m0-46.08A391.68 391.68 0 1 1 120.32 545.28 391.68 391.68 0 0 1 512 153.6z"  /><path fill="#000000" d="M512 584.16896V305.664"  /><path fill="#000000" d="M537.6 305.664v278.50496a25.6 25.6 0 0 1-25.6 25.6 25.6 25.6 0 0 1-25.6-25.6V305.664a25.6 25.6 0 0 1 25.6-25.6 25.6 25.6 0 0 1 25.6 25.6z"  /><path fill="#000000" d="M634.112 706.56L512 584.448"  /><path fill="#000000" d="M616.01024 724.66176l-122.112-122.112a25.6 25.6 0 0 1 0-36.20352 25.6 25.6 0 0 1 36.20352 0l122.112 122.112a25.6 25.6 0 0 1 0 36.20352 25.6 25.6 0 0 1-36.20352 0z"  /><path fill="#000000" d="M137.02912 266.89792a23.04 23.04 0 0 1-14.7456-39.6288l130.02752-124.8a23.04 23.04 0 0 1 31.90784 33.24672l-130.01216 124.8a22.98112 22.98112 0 0 1-17.1776 6.38208z"  /><path fill="#000000" d="M883.8656 266.89792a22.97856 22.97856 0 0 1-17.1648-6.3872l-130.0224-124.79488a23.04 23.04 0 0 1 31.90784-33.24416l130.0224 124.79488a23.04 23.04 0 0 1-14.74304 39.63136z"  /></svg>