<?xml version="1.0" standalone="no"?><!DOCTYPE svg PUBLIC "-//W3C//DTD SVG 1.1//EN" "http://www.w3.org/Graphics/SVG/1.1/DTD/svg11.dtd"><svg class="icon" width="200px" height="200.00px" viewBox="0 0 1024 1024" version="1.1" xmlns="http://www.w3.org/2000/svg"><path fill="#000000" d="M322.92096 897.2672V379.72992a23.04 23.04 0 0 1 23.04-23.04 23.04 23.04 0 0 1 23.04 23.04v517.53728a23.04 23.04 0 0 1-23.04 23.04 23.04 23.04 0 0 1-23.04-23.04z"  /><path fill="#000000" d="M129.62816 702.7072a23.04 23.04 0 0 1 32.58368 0l183.30112 183.30112 184.23808-183.34208a23.04 23.04 0 0 1 32.58368 0.08192 23.04 23.04 0 0 1-0.08192 32.58368l-200.5248 199.552a23.04 23.04 0 0 1-32.54528-0.0384l-199.552-199.55456a23.04 23.04 0 0 1 0-32.58368z"  /><path fill="#000000" d="M895.9872 288.9216a23.04 23.04 0 0 1 0.0384 32.54272 23.04 23.04 0 0 1-32.58112 0.08192l-184.23808-183.34208-183.30112 183.30112a23.04 23.04 0 0 1-32.58368 0 23.04 23.04 0 0 1 0-32.58368l199.552-199.552a23.04 23.04 0 0 1 32.54528-0.04096l200.52736 199.552z"  /><path fill="#000000" d="M656.6144 622.49728V104.96a23.04 23.04 0 0 1 23.04-23.04 23.04 23.04 0 0 1 23.04 23.04v517.53728a23.04 23.04 0 0 1-23.04 23.04 23.04 23.04 0 0 1-23.04-23.04z"  /></svg>