<?xml version="1.0" standalone="no"?><!DOCTYPE svg PUBLIC "-//W3C//DTD SVG 1.1//EN" "http://www.w3.org/Graphics/SVG/1.1/DTD/svg11.dtd"><svg class="icon" width="200px" height="200.00px" viewBox="0 0 1024 1024" version="1.1" xmlns="http://www.w3.org/2000/svg"><path fill="#000000" d="M514.71872 565.76a18.0992 18.0992 0 0 0-18.07872 18.07872A186.93376 186.93376 0 0 0 683.36128 770.56h31.03488A186.93376 186.93376 0 0 0 901.12 583.83872a18.0992 18.0992 0 0 0-18.07872-18.07872H514.71872m0-46.08h368.32256A64.15872 64.15872 0 0 1 947.2 583.83872 232.80128 232.80128 0 0 1 714.39872 816.64h-31.03744A232.80128 232.80128 0 0 1 450.56 583.83872 64.15872 64.15872 0 0 1 514.71872 519.68z"  /><path fill="#000000" d="M698.88 253.44c-52.224 0-94.72 41.91744-94.72 93.44s42.496 93.44 94.72 93.44 94.72-41.91744 94.72-93.44S751.104 253.44 698.88 253.44m0-46.08c77.76256 0 140.8 62.464 140.8 139.52S776.64256 486.4 698.88 486.4s-140.8-62.464-140.8-139.52S621.11744 207.36 698.88 207.36z"  /><path fill="#000000" d="M310.99904 627.09248l-189.99552-189.99296a23.04 23.04 0 0 1 0-32.58368 23.04 23.04 0 0 1 32.58368 0l189.99296 189.99552a23.04 23.04 0 0 1 0 32.58112 23.04 23.04 0 0 1-32.58112 0z"  /><path fill="#000000" d="M253.44 384c-71.98976 0-130.56 57.99424-130.56 129.28S181.45024 642.56 253.44 642.56s130.56-57.99424 130.56-129.28S325.42976 384 253.44 384m0-46.08c97.55648 0 176.64 78.51264 176.64 175.36S350.99648 688.64 253.44 688.64s-176.64-78.51264-176.64-175.36S155.88352 337.92 253.44 337.92z"  /></svg>