<?xml version="1.0" standalone="no"?><!DOCTYPE svg PUBLIC "-//W3C//DTD SVG 1.1//EN" "http://www.w3.org/Graphics/SVG/1.1/DTD/svg11.dtd"><svg class="icon" width="200px" height="200.00px" viewBox="0 0 1024 1024" version="1.1" xmlns="http://www.w3.org/2000/svg"><path fill="#000000" d="M127.54176 322.112h517.53728a23.04 23.04 0 0 1 23.04 23.04 23.04 23.04 0 0 1-23.04 23.04H127.54176a23.04 23.04 0 0 1-23.04-23.04 23.04 23.04 0 0 1 23.04-23.04z"  /><path fill="#000000" d="M322.10176 128.8192a23.04 23.04 0 0 1 0 32.58368L138.80064 344.704l183.34208 184.23808a23.04 23.04 0 0 1-0.08192 32.58368 23.04 23.04 0 0 1-32.58368-0.08192l-199.552-200.5248a23.04 23.04 0 0 1 0.0384-32.54528l199.55456-199.552a23.04 23.04 0 0 1 32.58368 0z"  /><path fill="#000000" d="M735.88736 895.17824a23.04 23.04 0 0 1-32.54272 0.0384 23.04 23.04 0 0 1-0.08192-32.58112l183.34208-184.23808-183.30112-183.30112a23.04 23.04 0 0 1 0-32.58368 23.04 23.04 0 0 1 32.58368 0l199.552 199.552a23.04 23.04 0 0 1 0.04096 32.54528l-199.552 200.52736z"  /><path fill="#000000" d="M402.31168 655.80544h517.53728a23.04 23.04 0 0 1 23.04 23.04 23.04 23.04 0 0 1-23.04 23.04H402.31168a23.04 23.04 0 0 1-23.04-23.04 23.04 23.04 0 0 1 23.04-23.04z"  /></svg>