<?xml version="1.0" standalone="no"?><!DOCTYPE svg PUBLIC "-//W3C//DTD SVG 1.1//EN" "http://www.w3.org/Graphics/SVG/1.1/DTD/svg11.dtd"><svg class="icon" width="200px" height="200.00px" viewBox="0 0 1024 1024" version="1.1" xmlns="http://www.w3.org/2000/svg"><path fill="#000000" d="M623.71072 946.54464a23.04 23.04 0 0 1-23.04-22.98368 23.04 23.04 0 0 1 22.98368-23.09632l277.90336-0.6784V622.6176a23.04 23.04 0 0 1 23.04-23.04 23.04 23.04 0 0 1 23.04 23.04v300.15232a23.04 23.04 0 0 1-22.98368 23.04l-300.88704 0.73472z" opacity=".9" /><path fill="#000000" d="M578.75968 545.08288l362.28864 362.2912a23.04 23.04 0 0 1 0 32.58112 23.04 23.04 0 0 1-32.58368 0L546.176 577.66656a23.04 23.04 0 0 1 0-32.58368 23.04 23.04 0 0 1 32.58368 0z" opacity=".9" /><path fill="#000000" d="M405.41184 76.22656a23.04 23.04 0 0 1 23.04 22.98368 23.04 23.04 0 0 1-22.98368 23.09632L127.5648 122.9824V400.1536a23.04 23.04 0 0 1-23.04 23.04 23.04 23.04 0 0 1-23.04-23.04V100.00128a23.04 23.04 0 0 1 22.98368-23.04l300.88704-0.73472z" opacity=".9" /><path fill="#000000" d="M88.07168 115.39712a23.04 23.04 0 0 1 0-32.58368 23.04 23.04 0 0 1 32.58368 0l362.2912 362.2912a23.04 23.04 0 0 1 0 32.58368 23.04 23.04 0 0 1-32.58368 0z" opacity=".9" /></svg>