<?xml version="1.0" standalone="no"?><!DOCTYPE svg PUBLIC "-//W3C//DTD SVG 1.1//EN" "http://www.w3.org/Graphics/SVG/1.1/DTD/svg11.dtd"><svg class="icon" width="200px" height="200.00px" viewBox="0 0 1024 1024" version="1.1" xmlns="http://www.w3.org/2000/svg"><path d="M754.76992 496.90112a23.04 23.04 0 0 1 0.0384 32.54528 23.04 23.04 0 0 1-32.58368 0.07936l-210.7392-209.7152-209.67168 209.67424a23.04 23.04 0 0 1-32.58368 0 23.04 23.04 0 0 1 0-32.58368l225.92512-225.92256a23.04 23.04 0 0 1 32.54528-0.04096l227.0208 225.9328z" opacity=".9" /><path d="M488.96 784.24064v-497.7664a23.04 23.04 0 0 1 23.04-23.04 23.04 23.04 0 0 1 23.04 23.04v497.7664a23.04 23.04 0 0 1-23.04 23.04 23.04 23.04 0 0 1-23.04-23.04z" opacity=".9" /><path d="M694.40768 875.83744h-364.8a23.04 23.04 0 0 1 0-46.08h364.8a23.04 23.04 0 0 1 0 46.08z"  /><path d="M733.53216 357.90848a23.04 23.04 0 0 1 0.03584 32.54784 23.04 23.04 0 0 1-32.58112 0.0768l-189.44256-188.52608-188.48768 188.49024a23.04 23.04 0 0 1-32.58368 0 23.04 23.04 0 0 1 0-32.58368l204.73088-204.73344a23.04 23.04 0 0 1 32.54528-0.04096l205.74208 204.73088z"  /></svg>