<?xml version="1.0" standalone="no"?><!DOCTYPE svg PUBLIC "-//W3C//DTD SVG 1.1//EN" "http://www.w3.org/Graphics/SVG/1.1/DTD/svg11.dtd"><svg class="icon" width="200px" height="200.00px" viewBox="0 0 1024 1024" version="1.1" xmlns="http://www.w3.org/2000/svg"><path d="M269.23008 426.27584a23.04 23.04 0 0 1 32.58368 0l209.67168 209.67424 210.7392-209.7152a23.04 23.04 0 0 1 32.58368 0.08192 23.04 23.04 0 0 1-0.08192 32.58368l-227.0208 225.9328a23.04 23.04 0 0 1-32.54272-0.04096l-225.9328-225.9328a23.04 23.04 0 0 1 0-32.58368z" opacity=".9" /><path d="M535.03744 171.52v497.7664a23.04 23.04 0 0 1-23.04 23.04 23.04 23.04 0 0 1-23.04-23.04V171.52a23.04 23.04 0 0 1 23.04-23.04 23.04 23.04 0 0 1 23.04 23.04z" opacity=".9" /><path d="M694.40512 876.6464h-364.8a23.04 23.04 0 0 1 0-46.08h364.8a23.04 23.04 0 0 1 0 46.08z"  /><path d="M290.46784 565.26848a23.04 23.04 0 0 1 32.58112 0l188.49024 188.48768 189.44768-188.52864a23.04 23.04 0 0 1 32.58368 0.08192 23.04 23.04 0 0 1-0.08192 32.58368l-205.73952 204.73856a23.04 23.04 0 0 1-32.54272-0.0384l-204.73344-204.73344a23.04 23.04 0 0 1-0.00512-32.59136z"  /></svg>