<?xml version="1.0" standalone="no"?><!DOCTYPE svg PUBLIC "-//W3C//DTD SVG 1.1//EN" "http://www.w3.org/Graphics/SVG/1.1/DTD/svg11.dtd"><svg class="icon" width="200px" height="200.00px" viewBox="0 0 1024 1024" version="1.1" xmlns="http://www.w3.org/2000/svg"><path fill="#000000" d="M350.26176 565.76a9.792 9.792 0 0 0-9.78176 9.78176A156.79488 156.79488 0 0 0 497.09824 732.16h29.80352A156.79488 156.79488 0 0 0 683.52 575.54176a9.792 9.792 0 0 0-9.78176-9.78176H350.26176m0-46.08h323.47648A55.86176 55.86176 0 0 1 729.6 575.54176 202.69824 202.69824 0 0 1 526.90176 778.24h-29.80352A202.69824 202.69824 0 0 1 294.4 575.54176 55.86176 55.86176 0 0 1 350.26176 519.68z"  /><path fill="#000000" d="M513.28 291.84c-43.05408 0-78.08 34.45248-78.08 76.8s35.02592 76.8 78.08 76.8 78.08-34.45248 78.08-76.8-35.02592-76.8-78.08-76.8m0-46.08c68.57216 0 124.16 55.0144 124.16 122.88s-55.58784 122.88-124.16 122.88-124.16-55.0144-124.16-122.88 55.58784-122.88 124.16-122.88z"  /><path fill="#000000" d="M512.31488 124.16c214.016 0 388.15232 174.12352 388.15232 388.15232a383.85152 383.85152 0 0 1-76.74112 231.74912l33.38752 123.392a23.04 23.04 0 0 1-5.92896 22.28992 23.04 23.04 0 0 1-22.272 5.98272l-140.20864-37.57056a389.03808 389.03808 0 0 1-176.384 42.30912c-214.016 0-388.15488-174.12608-388.15488-388.15488S298.28608 124.16 512.31488 124.16z m289.86368 716.6976l-25.91744-95.7824a23.04 23.04 0 0 1 4.19072-20.3392 338.432 338.432 0 0 0 73.9328-212.42624c0-188.61824-153.45664-342.06976-342.06976-342.06976S170.24 323.69152 170.24 512.31232s153.45408 342.07488 342.07488 342.07488a342.54592 342.54592 0 0 0 162.67008-41.0752 23.04 23.04 0 0 1 16.93696-1.9968z"  /></svg>