<?xml version="1.0" standalone="no"?><!DOCTYPE svg PUBLIC "-//W3C//DTD SVG 1.1//EN" "http://www.w3.org/Graphics/SVG/1.1/DTD/svg11.dtd"><svg class="icon" width="200px" height="200.00px" viewBox="0 0 1024 1024" version="1.1" xmlns="http://www.w3.org/2000/svg"><path fill="#000000" d="M253.44 578.56a43.56864 43.56864 0 0 0-43.52 43.52 279.35488 279.35488 0 0 0 279.04 279.04h46.08a279.35488 279.35488 0 0 0 279.04-279.04 43.56864 43.56864 0 0 0-43.52-43.52H253.44m0-46.08h517.12a89.6 89.6 0 0 1 89.6 89.6 325.12 325.12 0 0 1-325.12 325.12h-46.08A325.12 325.12 0 0 1 163.84 622.08a89.6 89.6 0 0 1 89.6-89.6z"  /><path fill="#000000" d="M512 143.36c-83.28448 0-151.04 67.18208-151.04 149.76s67.75552 149.76 151.04 149.76 151.04-67.18208 151.04-149.76S595.28448 143.36 512 143.36m0-46.08c108.86656 0 197.12 87.68 197.12 195.84S620.86656 488.96 512 488.96s-197.12-87.68-197.12-195.84S403.13344 97.28 512 97.28z"  /></svg>