<?xml version="1.0" standalone="no"?><!DOCTYPE svg PUBLIC "-//W3C//DTD SVG 1.1//EN" "http://www.w3.org/Graphics/SVG/1.1/DTD/svg11.dtd"><svg class="icon" width="200px" height="200.00px" viewBox="0 0 1024 1024" version="1.1" xmlns="http://www.w3.org/2000/svg"><path d="M754.7648 383.38048a23.04 23.04 0 0 1 0.04096 32.54528 23.04 23.04 0 0 1-32.58368 0.07936l-210.7392-209.7152-209.67168 209.67424a23.04 23.04 0 0 1-32.58368 0 23.04 23.04 0 0 1 0-32.58368l225.92512-225.92256a23.04 23.04 0 0 1 32.54528-0.04096l227.0208 225.9328z" opacity=".9" /><path d="M488.95744 758.88384V172.9536a23.04 23.04 0 0 1 23.04-23.04 23.04 23.04 0 0 1 23.04 23.04v585.93024a23.04 23.04 0 0 1-23.04 23.04 23.04 23.04 0 0 1-23.04-23.04z" opacity=".9" /><path d="M694.40512 874.0864h-364.8a23.04 23.04 0 0 1 0-46.08h364.8a23.04 23.04 0 0 1 0 46.08z"  /></svg>