<?xml version="1.0" standalone="no"?><!DOCTYPE svg PUBLIC "-//W3C//DTD SVG 1.1//EN" "http://www.w3.org/Graphics/SVG/1.1/DTD/svg11.dtd"><svg class="icon" width="200px" height="200.00px" viewBox="0 0 1024 1024" version="1.1" xmlns="http://www.w3.org/2000/svg"><path fill="#000000" d="M166.4 513.28a78.5536 78.5536 0 0 1 39.68-68.72576l545.28-314.86208A79.36 79.36 0 0 1 870.4 198.41792v629.72416a79.36 79.36 0 0 1-119.04 68.72576l-545.28-314.86208A78.5536 78.5536 0 0 1 166.4 513.28zM824.32 198.41792a33.28 33.28 0 0 0-49.92-28.82048l-545.28 314.86208a33.28 33.28 0 0 0 0 57.64096l545.28 314.86208a33.28 33.28 0 0 0 49.92-28.82048z"  /><path fill="#000000" d="M181.76512 896a23.04 23.04 0 0 1-23.04-23.04V151.04a23.04 23.04 0 0 1 46.08 0v721.92a23.04 23.04 0 0 1-23.04 23.04z"  /></svg>