<?xml version="1.0" standalone="no"?><!DOCTYPE svg PUBLIC "-//W3C//DTD SVG 1.1//EN" "http://www.w3.org/Graphics/SVG/1.1/DTD/svg11.dtd"><svg class="icon" width="200px" height="200.00px" viewBox="0 0 1024 1024" version="1.1" xmlns="http://www.w3.org/2000/svg"><path fill="#000000" d="M389.632 189.952a23.04 23.04 0 0 1 32.54272-0.04096 23.04 23.04 0 0 1 0.0768 32.58368L133.4528 512.70656l288.76032 288.76032a23.04 23.04 0 0 1 0 32.58368 23.04 23.04 0 0 1-32.58368 0L84.61312 529.03168a23.04 23.04 0 0 1-0.04096-32.54272L389.59104 189.9904z"  /><path fill="#000000" d="M890.88 535.03744H99.84a23.04 23.04 0 0 1 0-46.08h791.04a23.04 23.04 0 0 1 0 46.08z"  /></svg>