<?xml version="1.0" standalone="no"?><!DOCTYPE svg PUBLIC "-//W3C//DTD SVG 1.1//EN" "http://www.w3.org/Graphics/SVG/1.1/DTD/svg11.dtd"><svg class="icon" width="200px" height="200.00px" viewBox="0 0 1024 1024" version="1.1" xmlns="http://www.w3.org/2000/svg"><path fill="#000000" d="M236.8 243.2h552.96a23.04 23.04 0 0 1 23.04 23.04v573.44a79.4496 79.4496 0 0 1-79.36 79.36h-440.32a79.4496 79.4496 0 0 1-79.36-79.36V266.24a23.04 23.04 0 0 1 23.04-23.04z m529.92 46.08h-506.88v550.4a33.3184 33.3184 0 0 0 33.28 33.28h440.32a33.3184 33.3184 0 0 0 33.28-33.28z"  /><path fill="#000000" d="M889.59488 289.28h-752.64a23.04 23.04 0 0 1 0-46.08h752.64a23.04 23.04 0 0 1 0 46.08z"  /><path fill="#000000" d="M433.28 104.96h157.44a79.4496 79.4496 0 0 1 79.36 79.36v81.92a23.04 23.04 0 0 1-23.04 23.04h-270.08a23.04 23.04 0 0 1-23.04-23.04V184.32a79.4496 79.4496 0 0 1 79.36-79.36z m190.72 138.24V184.32a33.3184 33.3184 0 0 0-33.28-33.28h-157.44a33.3184 33.3184 0 0 0-33.28 33.28v58.88z"  /></svg>