<?xml version="1.0" standalone="no"?><!DOCTYPE svg PUBLIC "-//W3C//DTD SVG 1.1//EN" "http://www.w3.org/Graphics/SVG/1.1/DTD/svg11.dtd"><svg class="icon" width="200px" height="200.00px" viewBox="0 0 1024 1024" version="1.1" xmlns="http://www.w3.org/2000/svg"><path fill="#000000" d="M339.26656 197.12a10.26048 10.26048 0 0 0-8.89344 5.16352l-174.592 305.92a10.28096 10.28096 0 0 0 0 10.1504l174.592 305.92a10.26304 10.26304 0 0 0 8.89088 5.16608h348.02944a10.26048 10.26048 0 0 0 8.89344-5.16352l174.592-305.92a10.28096 10.28096 0 0 0 0-10.1504l-174.592-305.92A10.26048 10.26048 0 0 0 687.29344 197.12H339.26656m0-46.08h348.02688a56.32 56.32 0 0 1 48.91648 28.416l174.592 305.92a56.32 56.32 0 0 1 0 55.82848l-174.592 305.92A56.32 56.32 0 0 1 687.29344 875.52H339.264a56.32 56.32 0 0 1-48.91648-28.416L115.77088 541.184a56.32 56.32 0 0 1 0-55.82848l174.592-305.92A56.32 56.32 0 0 1 339.26656 151.04z"  /><path fill="#000000" d="M514.56 343.04c94.57664 0 171.52 76.36992 171.52 170.24S609.13664 683.52 514.56 683.52s-171.52-76.36992-171.52-170.24 76.94336-170.24 171.52-170.24z m0 294.4c69.16864 0 125.44-55.69792 125.44-124.16S583.72864 389.12 514.56 389.12s-125.44 55.69792-125.44 124.16 56.27136 124.16 125.44 124.16z"  /></svg>