<?xml version="1.0" standalone="no"?><!DOCTYPE svg PUBLIC "-//W3C//DTD SVG 1.1//EN" "http://www.w3.org/Graphics/SVG/1.1/DTD/svg11.dtd"><svg class="icon" width="200px" height="200.00px" viewBox="0 0 1024 1024" version="1.1" xmlns="http://www.w3.org/2000/svg"><path fill="#000000" d="M512 122.88c-214.56128 0-389.12 174.55872-389.12 389.12s174.55872 389.12 389.12 389.12 389.12-174.55872 389.12-389.12S726.56128 122.88 512 122.88m0-46.08A435.2 435.2 0 1 1 76.8 512 435.2 435.2 0 0 1 512 76.8z"  /><path fill="#000000" d="M512 555.21024V245.76"  /><path fill="#000000" d="M537.6 245.76v309.45024a25.6 25.6 0 0 1-25.6 25.6 25.6 25.6 0 0 1-25.6-25.6V245.76a25.6 25.6 0 0 1 25.6-25.6 25.6 25.6 0 0 1 25.6 25.6z"  /><path fill="#000000" d="M647.68 691.2l-135.68-135.68"  /><path fill="#000000" d="M629.57824 709.2992l-135.68-135.67744a25.6 25.6 0 0 1 0-36.20352 25.6 25.6 0 0 1 36.20352 0l135.68 135.68a25.6 25.6 0 0 1 0 36.20352 25.6 25.6 0 0 1-36.20352 0z"  /></svg>