<?xml version="1.0" standalone="no"?><!DOCTYPE svg PUBLIC "-//W3C//DTD SVG 1.1//EN" "http://www.w3.org/Graphics/SVG/1.1/DTD/svg11.dtd"><svg class="icon" width="200px" height="200.00px" viewBox="0 0 1024 1024" version="1.1" xmlns="http://www.w3.org/2000/svg"><path fill="#000000" d="M512 141.824a9.57696 9.57696 0 0 0-9.16736 5.68064l-91.21792 183.39072a102.44352 102.44352 0 0 1-76.77952 55.7056l-202.8032 29.83424a10.24 10.24 0 0 0-5.66272 17.45664l146.31424 142.87616a102.41536 102.41536 0 0 1 29.4144 90.40128l-34.20928 201.51808a9.3952 9.3952 0 0 0 2.048 8.128 10.90816 10.90816 0 0 0 8.02304 3.94752 10.16576 10.16576 0 0 0 4.75136-1.28l181.92896-94.912a102.4 102.4 0 0 1 94.7328 0l181.91104 94.90944a10.16576 10.16576 0 0 0 4.75136 1.28 10.90816 10.90816 0 0 0 8.02304-3.95008 9.39264 9.39264 0 0 0 2.048-8.128l-34.20672-201.52064a102.41536 102.41536 0 0 1 29.4144-90.40128l146.31424-142.87616a10.24 10.24 0 0 0-5.66272-17.45664l-202.8032-29.83424a102.44352 102.44352 0 0 1-76.77952-55.7056l-91.21536-183.3856A9.57696 9.57696 0 0 0 512 141.824m0-46.08a55.6672 55.6672 0 0 1 50.432 31.232l91.21792 183.39072a56.32 56.32 0 0 0 42.24 30.63808l202.8032 29.83424a56.32 56.32 0 0 1 31.15008 96.01536l-146.31424 142.87616a56.32 56.32 0 0 0-16.19456 49.72544l34.2016 201.52064a56.32 56.32 0 0 1-81.57696 59.35872l-181.91104-94.90944a56.32 56.32 0 0 0-52.10368 0l-181.91104 94.90944A56.32 56.32 0 0 1 222.464 860.97664l34.2016-201.52064a56.32 56.32 0 0 0-16.17664-49.72032l-146.31424-142.87616a56.32 56.32 0 0 1 31.15008-96.01536l202.8032-29.83424a56.32 56.32 0 0 0 42.24-30.63808L461.568 126.976A55.6672 55.6672 0 0 1 512 95.744z" /></svg>