<?xml version="1.0" standalone="no"?><!DOCTYPE svg PUBLIC "-//W3C//DTD SVG 1.1//EN" "http://www.w3.org/Graphics/SVG/1.1/DTD/svg11.dtd"><svg class="icon" width="200px" height="200.00px" viewBox="0 0 1024 1024" version="1.1" xmlns="http://www.w3.org/2000/svg"><path fill="#000000" d="M517.76768 856.82176c-280.2048 0-313.43616-254.87616-313.73568-257.45152a23.04 23.04 0 0 1 45.76-5.4144c1.13408 9.23136 29.57568 216.78336 267.97568 216.78336 240.64 0 277.70624-208.896 279.16544-217.79712a23.04 23.04 0 1 1 45.47072 7.46752c-0.41984 2.56768-45.33504 256.41216-324.63616 256.41216z"  /><path fill="#000000" d="M351.26528 602.92864a23.04 23.04 0 0 1 8.4608 31.424 23.04 23.04 0 0 1-31.45216 8.50944L219.66336 580.5056l-62.4384 108.14208a23.04 23.04 0 0 1-31.47264 8.43264 23.04 23.04 0 0 1-8.43264-31.47264l73.93024-128.04608a23.04 23.04 0 0 1 31.424-8.4608l128.54272 73.79712z"  /><path fill="#000000" d="M204.35968 450.36288a23.05792 23.05792 0 0 1-22.76608-26.7776c0.41984-2.56 45.32992-256.4096 324.63104-256.4096 280.2048 0 313.44128 254.87616 313.7408 257.45152a23.04 23.04 0 0 1-45.75488 5.44256c-1.08544-8.85248-29.3504-216.81152-267.98592-216.81152-240.64 0-277.70112 208.896-279.16032 217.79712a23.04 23.04 0 0 1-22.70464 19.30752z"  /><path fill="#000000" d="M672.73216 421.07648a23.04 23.04 0 0 1-8.4608-31.424 23.04 23.04 0 0 1 31.45216-8.50944l108.61568 62.35392 62.4384-108.1472a23.04 23.04 0 0 1 31.47264-8.43264 23.04 23.04 0 0 1 8.43264 31.47264l-73.93024 128.0512a23.04 23.04 0 0 1-31.424 8.4608l-128.54784-73.79712z"  /></svg>