<?xml version="1.0" standalone="no"?><!DOCTYPE svg PUBLIC "-//W3C//DTD SVG 1.1//EN" "http://www.w3.org/Graphics/SVG/1.1/DTD/svg11.dtd"><svg class="icon" width="200px" height="200.00px" viewBox="0 0 1024 1024" version="1.1" xmlns="http://www.w3.org/2000/svg"><path d="M241.92 381.44H780.8a79.4496 79.4496 0 0 1 79.36 79.36v396.8a79.4496 79.4496 0 0 1-79.36 79.36H241.92a79.4496 79.4496 0 0 1-79.36-79.36V460.8a79.4496 79.4496 0 0 1 79.36-79.36zM780.8 890.88a33.3184 33.3184 0 0 0 33.28-33.28V460.8a33.3184 33.3184 0 0 0-33.28-33.28H241.92a33.3184 33.3184 0 0 0-33.28 33.28v396.8a33.3184 33.3184 0 0 0 33.28 33.28z"  /><path d="M666.88 427.52h-307.2a23.04 23.04 0 0 1-23.04-23.04v-138.24a175.55968 175.55968 0 0 1 13.89056-68.76416 176.03072 176.03072 0 0 1 37.84704-56.1408 176.0256 176.0256 0 0 1 56.1408-37.84704A175.55456 175.55456 0 0 1 513.28 89.6a175.55456 175.55456 0 0 1 68.76416 13.89056 176.02304 176.02304 0 0 1 56.1408 37.84704 176.02816 176.02816 0 0 1 37.84448 56.1408A175.55712 175.55712 0 0 1 689.92 266.24v138.24a23.04 23.04 0 0 1-6.74816 16.29184A23.04 23.04 0 0 1 666.88 427.52z m-284.16-46.08h261.12v-115.2a129.72288 129.72288 0 0 0-10.24-50.81344 130.15296 130.15296 0 0 0-27.98848-41.50784A130.15296 130.15296 0 0 0 564.09344 145.92a129.72032 129.72032 0 0 0-50.81344-10.24 129.72032 129.72032 0 0 0-50.81344 10.24 130.15552 130.15552 0 0 0-41.50784 27.99104A130.16064 130.16064 0 0 0 392.96 215.42656a129.72032 129.72032 0 0 0-10.24 50.81344z"  /><path d="M512 587.57376m-53.76 0a53.76 53.76 0 1 0 107.52 0 53.76 53.76 0 1 0-107.52 0Z"  /><path d="M512.512 627.50976V737.28" fill="#FFFFFF" /><path d="M489.472 737.28v-109.77024a23.04 23.04 0 0 1 46.08 0V737.28a23.04 23.04 0 0 1-46.08 0z"  /></svg>