<?xml version="1.0" standalone="no"?><!DOCTYPE svg PUBLIC "-//W3C//DTD SVG 1.1//EN" "http://www.w3.org/Graphics/SVG/1.1/DTD/svg11.dtd"><svg class="icon" width="200px" height="200.00px" viewBox="0 0 1024 1024" version="1.1" xmlns="http://www.w3.org/2000/svg"><path fill="#000000" d="M512 122.88c-214.56128 0-389.12 174.55872-389.12 389.12s174.55872 389.12 389.12 389.12 389.12-174.55872 389.12-389.12S726.56128 122.88 512 122.88m0-46.08A435.2 435.2 0 1 1 76.8 512 435.2 435.2 0 0 1 512 76.8z"  /><path fill="#000000" d="M512 775.68a23.04 23.04 0 0 1-23.04-23.04V271.36a23.04 23.04 0 0 1 46.08 0v481.28a23.04 23.04 0 0 1-23.04 23.04z"  /><path fill="#000000" d="M752.64 535.04H271.36a23.04 23.04 0 0 1 0-46.08h481.28a23.04 23.04 0 0 1 0 46.08z"  /></svg>