<?xml version="1.0" standalone="no"?><!DOCTYPE svg PUBLIC "-//W3C//DTD SVG 1.1//EN" "http://www.w3.org/Graphics/SVG/1.1/DTD/svg11.dtd"><svg class="icon" width="200px" height="200.00px" viewBox="0 0 1024 1024" version="1.1" xmlns="http://www.w3.org/2000/svg"><path fill="#000000" d="M459.008 565.76a26.40384 26.40384 0 0 0-26.368 26.368 217.07008 217.07008 0 0 0 216.832 216.832h34.816a217.07008 217.07008 0 0 0 216.832-216.832 26.40384 26.40384 0 0 0-26.368-26.368H459.008m0-46.08h415.744a72.448 72.448 0 0 1 72.448 72.448A262.912 262.912 0 0 1 684.288 855.04h-34.816A262.912 262.912 0 0 1 386.56 592.128a72.448 72.448 0 0 1 72.448-72.448z"  /><path fill="#000000" d="M668.16 215.04c-62.11072 0-112.64 49.95584-112.64 111.36s50.52928 111.36 112.64 111.36 112.64-49.95584 112.64-111.36S730.27072 215.04 668.16 215.04m0-46.08c87.65952 0 158.72 70.4896 158.72 157.44S755.81952 483.84 668.16 483.84s-158.72-70.4896-158.72-157.44S580.50048 168.96 668.16 168.96z"  /><path fill="#000000" d="M236.8 659.2a23.04 23.04 0 0 1-23.04-23.04v-276.48a23.04 23.04 0 0 1 46.08 0v276.48a23.04 23.04 0 0 1-23.04 23.04z"  /><path fill="#000000" d="M375.04 520.96h-276.48a23.04 23.04 0 0 1 0-46.08h276.48a23.04 23.04 0 0 1 0 46.08z"  /></svg>