<?xml version="1.0" standalone="no"?><!DOCTYPE svg PUBLIC "-//W3C//DTD SVG 1.1//EN" "http://www.w3.org/Graphics/SVG/1.1/DTD/svg11.dtd"><svg class="icon" width="200px" height="200.00px" viewBox="0 0 1024 1024" version="1.1" xmlns="http://www.w3.org/2000/svg"><path fill="#000000" d="M110.08 512a78.5536 78.5536 0 0 1 39.68-68.72576l312.3968-180.3904a79.36 79.36 0 0 1 119.04 68.72576v360.78336a79.36 79.36 0 0 1-119.04 68.72576L149.7472 580.72576A78.5536 78.5536 0 0 1 110.08 512z m425.0496-180.39296a33.28 33.28 0 0 0-49.92-28.82048L172.8 483.17952a33.28 33.28 0 0 0 0 57.64096l312.39936 180.39296a33.28 33.28 0 0 0 49.92-28.82048z"  /><path fill="#000000" d="M834.47552 771.83488a78.272 78.272 0 0 1-39.60064-10.71872l-248.23552-143.33696a23.04 23.04 0 0 1-11.52-19.95264v-171.65312a23.04 23.04 0 0 1 11.52-19.95264l248.23552-143.33696a78.26944 78.26944 0 0 1 39.59808-10.71872 78.87872 78.87872 0 0 1 29.9264 5.888 80 80 0 0 1 25.25184 16.384 78.4384 78.4384 0 0 1 24.2688 57.1648v360.7808a78.43584 78.43584 0 0 1-24.2688 57.16224 80.01536 80.01536 0 0 1-25.24928 16.384 78.89152 78.89152 0 0 1-29.9264 5.90592z m-253.27616-187.30752l236.71808 136.68608a32.31744 32.31744 0 0 0 16.5504 4.544 33.024 33.024 0 0 0 12.52352-2.48576 34.12736 34.12736 0 0 0 10.76992-6.98368 32.768 32.768 0 0 0 10.0736-23.89504V331.6096a32.768 32.768 0 0 0-10.0736-23.8976 34.112 34.112 0 0 0-10.76992-6.98368 33.024 33.024 0 0 0-12.52352-2.4832 32.32512 32.32512 0 0 0-16.55552 4.544l-236.71296 136.68608z"  /></svg>