<?xml version="1.0" standalone="no"?><!DOCTYPE svg PUBLIC "-//W3C//DTD SVG 1.1//EN" "http://www.w3.org/Graphics/SVG/1.1/DTD/svg11.dtd"><svg class="icon" width="200px" height="200.00px" viewBox="0 0 1024 1024" version="1.1" xmlns="http://www.w3.org/2000/svg"><path fill="#000000" d="M233.93536 75.52h331.72736a23.04 23.04 0 0 1 16.29184 6.74816l278.06464 278.0672a23.04 23.04 0 0 1 6.74816 16.29184v495.15008a76.8 76.8 0 0 1-76.70272 76.70272H233.93536a76.8 76.8 0 0 1-76.70272-76.70272V152.22272A76.8 76.8 0 0 1 233.93536 75.52z m322.18368 46.08H233.93536a30.656 30.656 0 0 0-30.62272 30.62272v719.55456A30.656 30.656 0 0 0 233.93536 902.4h556.12928a30.656 30.656 0 0 0 30.62272-30.62272V386.16832z"  /><path fill="#000000" d="M565.66272 75.52a23.04 23.04 0 0 1 16.29184 6.74816l278.06464 278.0672a23.04 23.04 0 0 1-16.29184 39.33184H623.9232a81.39264 81.39264 0 0 1-81.30048-81.30304V98.56a23.04 23.04 0 0 1 14.22336-21.2864 23.00928 23.00928 0 0 1 8.81664-1.7536z m222.44352 278.06464l-199.40352-199.40096v164.18048a35.26144 35.26144 0 0 0 35.22048 35.22048z"  /></svg>