<?xml version="1.0" standalone="no"?><!DOCTYPE svg PUBLIC "-//W3C//DTD SVG 1.1//EN" "http://www.w3.org/Graphics/SVG/1.1/DTD/svg11.dtd"><svg class="icon" width="200px" height="200.00px" viewBox="0 0 1024 1024" version="1.1" xmlns="http://www.w3.org/2000/svg"><path fill="#000000" d="M934.37696 468.48a23.04 23.04 0 0 1-22.528-18.28352c-2.05568-9.41056-54.95808-232.59648-399.64416-232.59648s-397.98784 223.232-400.0768 232.72192a23.0784 23.0784 0 0 1-27.392 17.58976 23.0016 23.0016 0 0 1-17.664-27.26912c0.56576-2.69056 61.696-269.12256 445.1328-269.12256s444.17024 266.46784 444.73856 269.1584a23.06048 23.06048 0 0 1-22.5664 27.8016z"  /><path fill="#000000" d="M802.61632 566.2848a23.04 23.04 0 0 1-22.4896-18.1376c-1.37728-5.95712-37.11744-149.1456-267.98592-149.1456s-266.88768 143.22176-268.30848 149.31968a23.104 23.104 0 0 1-27.53792 17.32096 22.97856 22.97856 0 0 1-17.43616-27.34336c1.66144-7.56992 43.81184-185.37728 313.28256-185.37728s311.36 177.8432 313.00864 185.41312a23.06048 23.06048 0 0 1-22.528 27.95008z"  /><path fill="#000000" d="M366.7072 709.63968a23.14496 23.14496 0 0 1-4.50304-0.44288 23.04 23.04 0 0 1-18.12224-27.07968c7.62624-38.48448 52.55168-111.26528 167.98976-111.26528s160.27392 72.80384 167.85664 111.29856A23.04 23.04 0 0 1 634.7136 691.04128c-0.6144-2.82112-17.30048-74.10944-122.64192-74.10944-106.86208 0-122.64192 73.40032-122.7904 74.14272a23.04 23.04 0 0 1-22.57408 18.56512z"  /><path fill="#000000" d="M455.68 805.12a56.32 55.04 0 1 0 112.64 0 56.32 55.04 0 1 0-112.64 0Z"  /></svg>