<?xml version="1.0" standalone="no"?><!DOCTYPE svg PUBLIC "-//W3C//DTD SVG 1.1//EN" "http://www.w3.org/Graphics/SVG/1.1/DTD/svg11.dtd"><svg class="icon" width="200px" height="200.00px" viewBox="0 0 1024 1024" version="1.1" xmlns="http://www.w3.org/2000/svg"><path fill="#000000" d="M319.81056 675.84a20.3136 20.3136 0 0 0-20.29056 20.29056A194.9696 194.9696 0 0 0 494.26944 890.88h35.46112A194.9696 194.9696 0 0 0 724.48 696.13056a20.3136 20.3136 0 0 0-20.29056-20.29056H319.81056m0-46.08h384.37888A66.37056 66.37056 0 0 1 770.56 696.13056 240.82944 240.82944 0 0 1 529.73056 936.96h-35.46112A240.82944 240.82944 0 0 1 253.44 696.13056 66.37056 66.37056 0 0 1 319.81056 629.76z"  /><path fill="#000000" d="M512 353.28c-55.04 0-99.84 44.21376-99.84 98.56s44.8 98.56 99.84 98.56 99.84-44.21376 99.84-98.56-44.8-98.56-99.84-98.56m0-46.08c80.5888 0 145.92 64.768 145.92 144.64S592.5888 596.48 512 596.48s-145.92-64.768-145.92-144.64 65.3312-144.64 145.92-144.64z"  /><path fill="#000000" d="M510.72 261.12a23.04 23.04 0 0 1-23.04-23.04V99.84a23.04 23.04 0 0 1 23.04-23.04 23.04 23.04 0 0 1 23.04 23.04v138.24a23.04 23.04 0 0 1-23.04 23.04z"  /><path fill="#000000" d="M653.14816 323.49184a23.04 23.04 0 0 1 0-32.58368l97.75104-97.75104a23.04 23.04 0 0 1 32.58368 0 23.04 23.04 0 0 1 0 32.58368l-97.75104 97.75104a23.04 23.04 0 0 1-32.58368 0z"  /><path fill="#000000" d="M235.86816 193.15712a23.04 23.04 0 0 1 32.58368 0l97.75104 97.75104a23.04 23.04 0 0 1 0 32.58368 23.04 23.04 0 0 1-32.58368 0L235.86816 225.7408a23.04 23.04 0 0 1 0-32.58368z"  /><path fill="#000000" d="M698.88 399.36a23.04 23.04 0 0 1 23.04-23.04h138.24a23.04 23.04 0 0 1 23.04 23.04 23.04 23.04 0 0 1-23.04 23.04h-138.24a23.04 23.04 0 0 1-23.04-23.04z"  /><path fill="#000000" d="M140.8 399.36a23.04 23.04 0 0 1 23.04-23.04h138.24a23.04 23.04 0 0 1 23.04 23.04 23.04 23.04 0 0 1-23.04 23.04H163.84a23.04 23.04 0 0 1-23.04-23.04z"  /></svg>