<?xml version="1.0" standalone="no"?><!DOCTYPE svg PUBLIC "-//W3C//DTD SVG 1.1//EN" "http://www.w3.org/Graphics/SVG/1.1/DTD/svg11.dtd"><svg class="icon" width="200px" height="200.00px" viewBox="0 0 1024 1024" version="1.1" xmlns="http://www.w3.org/2000/svg"><path fill="#000000" d="M214.25664 578.03776a23.04 23.04 0 0 1 32.58368 0l264.51456 264.51712L777.20576 577.9968a23.04 23.04 0 0 1 32.58368 0.08192 23.04 23.04 0 0 1-0.08192 32.58368l-282.1376 280.768a23.04 23.04 0 0 1-32.54528-0.04096L214.26432 610.62912a23.04 23.04 0 0 1-0.00768-32.59136z" opacity=".9" /><path fill="#000000" d="M535.04 147.9168v728.1664a23.04 23.04 0 0 1-23.04 23.04 23.04 23.04 0 0 1-23.04-23.04V147.9168a23.04 23.04 0 0 1 23.04-23.04 23.04 23.04 0 0 1 23.04 23.04z" opacity=".9" /></svg>