<?xml version="1.0" standalone="no"?><!DOCTYPE svg PUBLIC "-//W3C//DTD SVG 1.1//EN" "http://www.w3.org/Graphics/SVG/1.1/DTD/svg11.dtd"><svg class="icon" width="200px" height="200.00px" viewBox="0 0 1024 1024" version="1.1" xmlns="http://www.w3.org/2000/svg"><path fill="#000000" d="M809.74592 413.38112a23.04 23.04 0 0 1 0.04096 32.54272 23.04 23.04 0 0 1-32.58368 0.07936L511.35488 181.44768 246.8352 445.9648a23.04 23.04 0 0 1-32.58368 0 23.04 23.04 0 0 1 0-32.58368L495.0144 132.6208a23.04 23.04 0 0 1 32.54528-0.04096L809.7024 413.34016z" opacity=".9" /><path fill="#000000" d="M488.96 876.0832V147.9168a23.04 23.04 0 0 1 23.04-23.04 23.04 23.04 0 0 1 23.04 23.04v728.1664a23.04 23.04 0 0 1-23.04 23.04 23.04 23.04 0 0 1-23.04-23.04z" opacity=".9" /></svg>