<?xml version="1.0" standalone="no"?><!DOCTYPE svg PUBLIC "-//W3C//DTD SVG 1.1//EN" "http://www.w3.org/Graphics/SVG/1.1/DTD/svg11.dtd"><svg class="icon" width="200px" height="200.00px" viewBox="0 0 1024 1024" version="1.1" xmlns="http://www.w3.org/2000/svg"><path fill="#000000" d="M514.56256 944.64256a428.1856 428.1856 0 0 1-155.88608-29.12768 429.75488 429.75488 0 0 1-69.10464-34.34496 432.896 432.896 0 0 1-61.34528-45.68832 433.82272 433.82272 0 0 1-52.224-55.66464 431.616 431.616 0 0 1-41.7664-64.29184 426.24 426.24 0 0 1-46.6304-148.992 23.04 23.04 0 0 1 15.76704-24.67328 23.04 23.04 0 0 1 27.24864 10.7264 246.1312 246.1312 0 0 0 214.98112 126.58432 246.0416 246.0416 0 0 0 245.76-245.76 246.0416 246.0416 0 0 0-245.76-245.76 248.34304 248.34304 0 0 0-41.472 3.47904 23.04 23.04 0 0 1-25.408-14.56128 23.04 23.04 0 0 1 9.40544-27.73248 428.12672 428.12672 0 0 1 106.752-47.48288 430.64576 430.64576 0 0 1 119.68256-16.8704 433.16992 433.16992 0 0 1 86.65344 8.73728 427.9936 427.9936 0 0 1 80.75776 25.07008 430.12352 430.12352 0 0 1 73.06496 39.65696 433.04192 433.04192 0 0 1 63.63392 52.50304 432.99328 432.99328 0 0 1 52.50304 63.63392 430.35904 430.35904 0 0 1 39.6544 73.06496 428.12672 428.12672 0 0 1 25.07008 80.76032 433.152 433.152 0 0 1 8.7424 86.65344 433.152 433.152 0 0 1-8.73728 86.65088 428.15232 428.15232 0 0 1-25.07008 80.76032 430.17984 430.17984 0 0 1-39.6544 73.0624 433.07008 433.07008 0 0 1-52.50304 63.63648 433.08032 433.08032 0 0 1-63.63392 52.50304 430.27456 430.27456 0 0 1-73.06496 39.65696 427.99616 427.99616 0 0 1-80.75776 25.07008 433.1648 433.1648 0 0 1-86.65856 8.73984z m-356.864-287.93856a382.52544 382.52544 0 0 0 17.23904 37.25568 385.5744 385.5744 0 0 0 37.29664 57.408 387.38176 387.38176 0 0 0 46.66624 49.73312 386.42944 386.42944 0 0 0 54.784 40.81152 383.57248 383.57248 0 0 0 61.67296 30.65344 382.3104 382.3104 0 0 0 139.20512 25.9968 386.96192 386.96192 0 0 0 77.41184-7.80288 381.79584 381.79584 0 0 0 72.04864-22.36416 383.98208 383.98208 0 0 0 65.22112-35.39968 386.6752 386.6752 0 0 0 56.8448-46.90176 386.69312 386.69312 0 0 0 46.90176-56.84736 383.83616 383.83616 0 0 0 35.39968-65.21856 381.98528 381.98528 0 0 0 22.36416-72.04864 386.92096 386.92096 0 0 0 7.808-77.41696 386.92096 386.92096 0 0 0-7.80288-77.4144 381.952 381.952 0 0 0-22.36416-72.04864 384 384 0 0 0-35.39968-65.21856 386.624 386.624 0 0 0-46.90176-56.8448 386.64448 386.64448 0 0 0-56.8448-46.90432 384.02304 384.02304 0 0 0-65.22112-35.39968 381.78816 381.78816 0 0 0-72.04864-22.36416 386.96192 386.96192 0 0 0-77.41696-7.80544 384.59904 384.59904 0 0 0-106.88512 15.06816q-2.57536 0.74496-5.14304 1.536a292.33664 292.33664 0 0 1 234.90816 286.24384 292.1728 292.1728 0 0 1-291.84 291.84 292.00128 292.00128 0 0 1-187.904-68.54656z" opacity=".9" /></svg>