<?xml version="1.0" standalone="no"?><!DOCTYPE svg PUBLIC "-//W3C//DTD SVG 1.1//EN" "http://www.w3.org/Graphics/SVG/1.1/DTD/svg11.dtd"><svg class="icon" width="200px" height="200.00px" viewBox="0 0 1024 1024" version="1.1" xmlns="http://www.w3.org/2000/svg"><path fill="#000000" d="M512 122.88c-214.56128 0-389.12 174.55872-389.12 389.12s174.55872 389.12 389.12 389.12 389.12-174.55872 389.12-389.12S726.56128 122.88 512 122.88m0-46.08A435.2 435.2 0 1 1 76.8 512 435.2 435.2 0 0 1 512 76.8z"  /><path fill="#000000" d="M493.89312 748.16a23.04 23.04 0 0 1-15.16032-5.69088l-183.12704-160.0384a23.04 23.04 0 1 1 30.3232-34.69824l160.95488 140.6592 205.87008-400.05632a23.04 23.04 0 1 1 40.96 21.08416l-219.34592 426.24a23.04 23.04 0 0 1-20.48 12.49792z"  /></svg>