<?xml version="1.0" standalone="no"?><!DOCTYPE svg PUBLIC "-//W3C//DTD SVG 1.1//EN" "http://www.w3.org/Graphics/SVG/1.1/DTD/svg11.dtd"><svg class="icon" width="200px" height="200.00px" viewBox="0 0 1024 1024" version="1.1" xmlns="http://www.w3.org/2000/svg"><path fill="#000000" d="M202.62912 856.76032a23.04 23.04 0 0 1-32.55808 0.0256 23.04 23.04 0 0 1-0.0512-32.58368L814.09792 178.04288a22.98624 22.98624 0 0 1 32.58368-0.05376 23.04 23.04 0 0 1 0.05888 32.57856L202.65472 856.73472z"  /><path fill="#000000" d="M860.88192 622.80192a23.04 23.04 0 0 1-22.98368 23.04 23.04 23.04 0 0 1-23.09632-22.98368l-1.024-416.11008H398.7456a23.04 23.04 0 0 1-23.04-23.04 23.04 23.04 0 0 1 23.04-23.04h438.016a23.04 23.04 0 0 1 23.04 22.98368l1.0752 439.0912z"  /></svg>